<?xml version="1.0" encoding="UTF-8" standalone="no"?>
<!DOCTYPE svg PUBLIC "-//W3C//DTD SVG 1.1//EN"
 "http://www.w3.org/Graphics/SVG/1.1/DTD/svg11.dtd">
<!-- Generated by graphviz version 2.43.0 (0)
 -->
<!-- Title: G Pages: 1 -->
<svg width="333pt" height="692pt"
 viewBox="0.00 0.00 332.84 692.00" xmlns="http://www.w3.org/2000/svg" xmlns:xlink="http://www.w3.org/1999/xlink">
<g id="graph0" class="graph" transform="scale(1 1) rotate(0) translate(4 688)">
<title>G</title>
<polygon fill="white" stroke="transparent" points="-4,4 -4,-688 328.84,-688 328.84,4 -4,4"/>
<g id="clust1" class="cluster">
<title>cluster_/SM_ROOT</title>
<polygon fill="none" stroke="transparent" points="24.5,-8 24.5,-676 314.5,-676 314.5,-8 24.5,-8"/>
</g>
<g id="clust2" class="cluster">
<title>cluster_/SM_ROOT/__outcomes__</title>
<path fill="#ffffff" stroke="#ffffff" d="M122.5,-16C122.5,-16 192.5,-16 192.5,-16 198.5,-16 204.5,-22 204.5,-28 204.5,-28 204.5,-42 204.5,-42 204.5,-48 198.5,-54 192.5,-54 192.5,-54 122.5,-54 122.5,-54 116.5,-54 110.5,-48 110.5,-42 110.5,-42 110.5,-28 110.5,-28 110.5,-22 116.5,-16 122.5,-16"/>
</g>
<!-- /SM_ROOT/__proxy__ -->
<g id="node1" class="node">
<title>/SM_ROOT/__proxy__</title>
<g id="a_node1"><a xlink:href="/SM_ROOT" xlink:title="SM_ROOT">
<text text-anchor="middle" x="113.5" y="-649.6" font-family="Times,serif" font-size="18.00">SM_ROOT</text>
</a>
</g>
</g>
<!-- /SM_ROOT/Move&#45;To cube2 -->
<g id="node3" class="node">
<title>/SM_ROOT/Move&#45;To cube2</title>
<g id="a_node3"><a xlink:href="/SM_ROOT/Move-To cube2" xlink:title="Move&#45;To cube2">
<ellipse fill="#ffffff" stroke="#000000" stroke-width="2" cx="113.5" cy="-568" rx="80.69" ry="18"/>
<text text-anchor="middle" x="113.5" y="-564.3" font-family="Times,serif" font-size="14.00">Move&#45;To cube2</text>
</a>
</g>
</g>
<!-- /SM_ROOT/__proxy__&#45;&gt;/SM_ROOT/Move&#45;To cube2 -->
<g id="edge20" class="edge">
<title>/SM_ROOT/__proxy__&#45;&gt;/SM_ROOT/Move&#45;To cube2</title>
<g id="a_edge20"><a xlink:href="/SM_ROOT/__proxy__::/SM_ROOT/Move-To cube2">
<path fill="none" stroke="black" stroke-width="2" d="M113.5,-639.88C113.5,-628.22 113.5,-610.8 113.5,-596.16"/>
<polygon fill="black" stroke="black" stroke-width="2" points="117,-596.1 113.5,-586.1 110,-596.1 117,-596.1"/>
</a>
</g>
</g>
<!-- /SM_ROOT:SUCCESS -->
<g id="node2" class="node">
<title>/SM_ROOT:SUCCESS</title>
<g id="a_node2"><a xlink:href="/SM_ROOT:SUCCESS" xlink:title="SUCCESS">
<path fill="#2ecc71" stroke="#1e8449" d="M189.17,-46C189.17,-46 125.83,-46 125.83,-46 122.17,-46 118.5,-42.33 118.5,-38.67 118.5,-38.67 118.5,-31.33 118.5,-31.33 118.5,-27.67 122.17,-24 125.83,-24 125.83,-24 189.17,-24 189.17,-24 192.83,-24 196.5,-27.67 196.5,-31.33 196.5,-31.33 196.5,-38.67 196.5,-38.67 196.5,-42.33 192.83,-46 189.17,-46"/>
<text text-anchor="middle" x="157.5" y="-31.9" font-family="Times,serif" font-size="12.00" fill="#1e8449">SUCCESS</text>
</a>
</g>
</g>
<!-- /SM_ROOT/Move&#45;To cube2&#45;&gt;/SM_ROOT/Move&#45;To cube2 -->
<g id="edge2" class="edge">
<title>/SM_ROOT/Move&#45;To cube2&#45;&gt;/SM_ROOT/Move&#45;To cube2</title>
<g id="a_edge2"><a xlink:href="/SM_ROOT/Move-To cube2:RUNNING:/SM_ROOT/Move-To cube2">
<path fill="none" stroke="black" stroke-width="2" d="M161.71,-582.43C196.02,-587.05 230.09,-582.24 230.09,-568 230.09,-555.15 202.35,-549.98 171.72,-552.49"/>
<polygon fill="black" stroke="black" stroke-width="2" points="171.27,-549.02 161.71,-553.57 172.03,-555.97 171.27,-549.02"/>
</a>
</g>
<g id="a_edge2&#45;label"><a xlink:href="/SM_ROOT/Move-To cube2:RUNNING:/SM_ROOT/Move-To cube2">
<text text-anchor="middle" x="178.31" y="-584.64" font-family="Times,serif" font-size="6.00">RUNNING</text>
</a>
</g>
</g>
<!-- /SM_ROOT/Pick cube2 -->
<g id="node4" class="node">
<title>/SM_ROOT/Pick cube2</title>
<g id="a_node4"><a xlink:href="/SM_ROOT/Pick cube2" xlink:title="Pick cube2">
<ellipse fill="#ffffff" stroke="#000000" stroke-width="2" cx="131.5" cy="-478" rx="61.19" ry="18"/>
<text text-anchor="middle" x="131.5" y="-474.3" font-family="Times,serif" font-size="14.00">Pick cube2</text>
</a>
</g>
</g>
<!-- /SM_ROOT/Move&#45;To cube2&#45;&gt;/SM_ROOT/Pick cube2 -->
<g id="edge1" class="edge">
<title>/SM_ROOT/Move&#45;To cube2&#45;&gt;/SM_ROOT/Pick cube2</title>
<g id="a_edge1"><a xlink:href="/SM_ROOT/Move-To cube2:Cube2 reached:/SM_ROOT/Pick cube2">
<path fill="none" stroke="black" stroke-width="2" d="M117.06,-549.61C119.59,-537.24 123.04,-520.37 125.93,-506.22"/>
<polygon fill="black" stroke="black" stroke-width="2" points="129.44,-506.55 128.01,-496.05 122.58,-505.15 129.44,-506.55"/>
</a>
</g>
<g id="a_edge1&#45;label"><a xlink:href="/SM_ROOT/Move-To cube2:Cube2 reached:/SM_ROOT/Pick cube2">
<text text-anchor="middle" x="99.09" y="-524.75" font-family="Times,serif" font-size="6.00">Cube2 reached</text>
</a>
</g>
</g>
<!-- /SM_ROOT/IDLE -->
<g id="node7" class="node">
<title>/SM_ROOT/IDLE</title>
<g id="a_node7"><a xlink:href="/SM_ROOT/IDLE" xlink:title="IDLE">
<ellipse fill="#ffffff" stroke="#000000" stroke-width="2" cx="109.5" cy="-208" rx="34.39" ry="18"/>
<text text-anchor="middle" x="109.5" y="-204.3" font-family="Times,serif" font-size="14.00">IDLE</text>
</a>
</g>
</g>
<!-- /SM_ROOT/Move&#45;To cube2&#45;&gt;/SM_ROOT/IDLE -->
<g id="edge3" class="edge">
<title>/SM_ROOT/Move&#45;To cube2&#45;&gt;/SM_ROOT/IDLE</title>
<g id="a_edge3"><a xlink:href="/SM_ROOT/Move-To cube2:FAILURE:/SM_ROOT/IDLE">
<path fill="none" stroke="black" stroke-width="2" d="M79.66,-551.53C61.68,-538.49 42.8,-518.4 34.5,-496 -0.39,-401.86 52.56,-282.02 86.8,-232.27"/>
<polygon fill="black" stroke="black" stroke-width="2" points="89.7,-234.24 92.75,-224.09 84.04,-230.12 89.7,-234.24"/>
</a>
</g>
<g id="a_edge3&#45;label"><a xlink:href="/SM_ROOT/Move-To cube2:FAILURE:/SM_ROOT/IDLE">
<text text-anchor="middle" x="14" y="-378.91" font-family="Times,serif" font-size="6.00">FAILURE</text>
</a>
</g>
</g>
<!-- /SM_ROOT/Pick cube2&#45;&gt;/SM_ROOT/Pick cube2 -->
<g id="edge5" class="edge">
<title>/SM_ROOT/Pick cube2&#45;&gt;/SM_ROOT/Pick cube2</title>
<g id="a_edge5"><a xlink:href="/SM_ROOT/Pick cube2:RUNNING:/SM_ROOT/Pick cube2">
<path fill="none" stroke="black" stroke-width="2" d="M168.11,-492.45C197.83,-498.33 228.59,-493.51 228.59,-478 228.59,-464.24 204.4,-458.9 178.2,-461.96"/>
<polygon fill="black" stroke="black" stroke-width="2" points="177.44,-458.54 168.11,-463.55 178.53,-465.45 177.44,-458.54"/>
</a>
</g>
<g id="a_edge5&#45;label"><a xlink:href="/SM_ROOT/Pick cube2:RUNNING:/SM_ROOT/Pick cube2">
<text text-anchor="middle" x="184.65" y="-494.66" font-family="Times,serif" font-size="6.00">RUNNING</text>
</a>
</g>
</g>
<!-- /SM_ROOT/Move&#45;To delivery -->
<g id="node5" class="node">
<title>/SM_ROOT/Move&#45;To delivery</title>
<g id="a_node5"><a xlink:href="/SM_ROOT/Move-To delivery" xlink:title="Move&#45;To delivery">
<ellipse fill="#ffffff" stroke="#000000" stroke-width="2" cx="198.5" cy="-388" rx="90.18" ry="18"/>
<text text-anchor="middle" x="198.5" y="-384.3" font-family="Times,serif" font-size="14.00">Move&#45;To delivery</text>
</a>
</g>
</g>
<!-- /SM_ROOT/Pick cube2&#45;&gt;/SM_ROOT/Move&#45;To delivery -->
<g id="edge4" class="edge">
<title>/SM_ROOT/Pick cube2&#45;&gt;/SM_ROOT/Move&#45;To delivery</title>
<g id="a_edge4"><a xlink:href="/SM_ROOT/Pick cube2:Cube2 in Hand:/SM_ROOT/Move-To delivery">
<path fill="none" stroke="black" stroke-width="2" d="M144.42,-460.03C154.34,-447.01 168.18,-428.82 179.38,-414.11"/>
<polygon fill="black" stroke="black" stroke-width="2" points="182.35,-415.99 185.62,-405.92 176.78,-411.75 182.35,-415.99"/>
</a>
</g>
<g id="a_edge4&#45;label"><a xlink:href="/SM_ROOT/Pick cube2:Cube2 in Hand:/SM_ROOT/Move-To delivery">
<text text-anchor="middle" x="141.65" y="-435" font-family="Times,serif" font-size="6.00">Cube2 in Hand</text>
</a>
</g>
</g>
<!-- /SM_ROOT/Pick cube2&#45;&gt;/SM_ROOT/IDLE -->
<g id="edge6" class="edge">
<title>/SM_ROOT/Pick cube2&#45;&gt;/SM_ROOT/IDLE</title>
<g id="a_edge6"><a xlink:href="/SM_ROOT/Pick cube2:FAILURE:/SM_ROOT/IDLE">
<path fill="none" stroke="black" stroke-width="2" d="M105.24,-461.71C91.5,-448.01 78.1,-426.9 72.5,-406 56.29,-345.52 72.78,-271.33 90.13,-233.59"/>
<polygon fill="black" stroke="black" stroke-width="2" points="93.39,-234.88 94.77,-224.38 87.14,-231.73 93.39,-234.88"/>
</a>
</g>
<g id="a_edge6&#45;label"><a xlink:href="/SM_ROOT/Pick cube2:FAILURE:/SM_ROOT/IDLE">
<text text-anchor="middle" x="52.06" y="-343.76" font-family="Times,serif" font-size="6.00">FAILURE</text>
</a>
</g>
</g>
<!-- /SM_ROOT/Move&#45;To delivery&#45;&gt;/SM_ROOT/Move&#45;To delivery -->
<g id="edge8" class="edge">
<title>/SM_ROOT/Move&#45;To delivery&#45;&gt;/SM_ROOT/Move&#45;To delivery</title>
<g id="a_edge8"><a xlink:href="/SM_ROOT/Move-To delivery:RUNNING:/SM_ROOT/Move-To delivery">
<path fill="none" stroke="black" stroke-width="2" d="M249.42,-402.93C287.04,-408.05 324.84,-403.07 324.84,-388 324.84,-374.28 293.53,-368.93 259.54,-371.94"/>
<polygon fill="black" stroke="black" stroke-width="2" points="258.97,-368.48 249.42,-373.07 259.75,-375.44 258.97,-368.48"/>
</a>
</g>
<g id="a_edge8&#45;label"><a xlink:href="/SM_ROOT/Move-To delivery:RUNNING:/SM_ROOT/Move-To delivery">
<text text-anchor="middle" x="233.03" y="-405.14" font-family="Times,serif" font-size="6.00">RUNNING</text>
</a>
</g>
</g>
<!-- /SM_ROOT/Place cube2 -->
<g id="node6" class="node">
<title>/SM_ROOT/Place cube2</title>
<g id="a_node6"><a xlink:href="/SM_ROOT/Place cube2" xlink:title="Place cube2">
<ellipse fill="#ffffff" stroke="#000000" stroke-width="2" cx="212.5" cy="-298" rx="66.09" ry="18"/>
<text text-anchor="middle" x="212.5" y="-294.3" font-family="Times,serif" font-size="14.00">Place cube2</text>
</a>
</g>
</g>
<!-- /SM_ROOT/Move&#45;To delivery&#45;&gt;/SM_ROOT/Place cube2 -->
<g id="edge7" class="edge">
<title>/SM_ROOT/Move&#45;To delivery&#45;&gt;/SM_ROOT/Place cube2</title>
<g id="a_edge7"><a xlink:href="/SM_ROOT/Move-To delivery:Delivery pose reached:/SM_ROOT/Place cube2">
<path fill="none" stroke="black" stroke-width="2" d="M201.27,-369.61C203.23,-357.24 205.92,-340.37 208.17,-326.22"/>
<polygon fill="black" stroke="black" stroke-width="2" points="211.67,-326.48 209.79,-316.05 204.76,-325.38 211.67,-326.48"/>
</a>
</g>
<g id="a_edge7&#45;label"><a xlink:href="/SM_ROOT/Move-To delivery:Delivery pose reached:/SM_ROOT/Place cube2">
<text text-anchor="middle" x="170.07" y="-344.75" font-family="Times,serif" font-size="6.00">Delivery pose reached</text>
</a>
</g>
</g>
<!-- /SM_ROOT/Move&#45;To delivery&#45;&gt;/SM_ROOT/IDLE -->
<g id="edge9" class="edge">
<title>/SM_ROOT/Move&#45;To delivery&#45;&gt;/SM_ROOT/IDLE</title>
<g id="a_edge9"><a xlink:href="/SM_ROOT/Move-To delivery:FAILURE:/SM_ROOT/IDLE">
<path fill="none" stroke="black" stroke-width="2" d="M162.6,-371.37C143.24,-358.39 122.1,-338.45 110.5,-316 97.34,-290.53 93.11,-257.61 95.6,-235.04"/>
<polygon fill="black" stroke="black" stroke-width="2" points="99.06,-235.62 97.29,-225.17 92.16,-234.44 99.06,-235.62"/>
</a>
</g>
<g id="a_edge9&#45;label"><a xlink:href="/SM_ROOT/Move-To delivery:FAILURE:/SM_ROOT/IDLE">
<text text-anchor="middle" x="92.76" y="-310.23" font-family="Times,serif" font-size="6.00">FAILURE</text>
</a>
</g>
</g>
<!-- /SM_ROOT/Place cube2&#45;&gt;/SM_ROOT/Place cube2 -->
<g id="edge11" class="edge">
<title>/SM_ROOT/Place cube2&#45;&gt;/SM_ROOT/Place cube2</title>
<g id="a_edge11"><a xlink:href="/SM_ROOT/Place cube2:RUNNING:/SM_ROOT/Place cube2">
<path fill="none" stroke="black" stroke-width="2" d="M251.6,-312.55C282.74,-318.28 314.79,-313.42 314.79,-298 314.79,-284.26 289.37,-278.91 261.81,-281.95"/>
<polygon fill="black" stroke="black" stroke-width="2" points="260.99,-278.53 251.6,-283.45 262,-285.46 260.99,-278.53"/>
</a>
</g>
<g id="a_edge11&#45;label"><a xlink:href="/SM_ROOT/Place cube2:RUNNING:/SM_ROOT/Place cube2">
<text text-anchor="middle" x="268.15" y="-314.76" font-family="Times,serif" font-size="6.00">RUNNING</text>
</a>
</g>
</g>
<!-- /SM_ROOT/Place cube2&#45;&gt;/SM_ROOT/IDLE -->
<g id="edge12" class="edge">
<title>/SM_ROOT/Place cube2&#45;&gt;/SM_ROOT/IDLE</title>
<g id="a_edge12"><a xlink:href="/SM_ROOT/Place cube2:FAILURE:/SM_ROOT/IDLE">
<path fill="none" stroke="black" stroke-width="2" d="M184.02,-281.67C164.97,-268.21 141.26,-248.42 125.3,-232.89"/>
<polygon fill="black" stroke="black" stroke-width="2" points="127.66,-230.3 118.14,-225.65 122.68,-235.22 127.66,-230.3"/>
</a>
</g>
<g id="a_edge12&#45;label"><a xlink:href="/SM_ROOT/Place cube2:FAILURE:/SM_ROOT/IDLE">
<text text-anchor="middle" x="136.13" y="-257.44" font-family="Times,serif" font-size="6.00">FAILURE</text>
</a>
</g>
</g>
<!-- /SM_ROOT/Success -->
<g id="node8" class="node">
<title>/SM_ROOT/Success</title>
<g id="a_node8"><a xlink:href="/SM_ROOT/Success" xlink:title="Success">
<ellipse fill="#ffffff" stroke="#000000" stroke-width="2" cx="157.5" cy="-118" rx="48.19" ry="18"/>
<text text-anchor="middle" x="157.5" y="-114.3" font-family="Times,serif" font-size="14.00">Success</text>
</a>
</g>
</g>
<!-- /SM_ROOT/Place cube2&#45;&gt;/SM_ROOT/Success -->
<g id="edge10" class="edge">
<title>/SM_ROOT/Place cube2&#45;&gt;/SM_ROOT/Success</title>
<g id="a_edge10"><a xlink:href="/SM_ROOT/Place cube2:Cube2 placed:/SM_ROOT/Success">
<path fill="none" stroke="black" stroke-width="2" d="M207.25,-279.95C200.74,-258.83 189.32,-221.76 179.5,-190 174.99,-175.41 169.95,-159.13 165.83,-145.85"/>
<polygon fill="black" stroke="black" stroke-width="2" points="169.06,-144.44 162.75,-135.93 162.37,-146.51 169.06,-144.44"/>
</a>
</g>
<g id="a_edge10&#45;label"><a xlink:href="/SM_ROOT/Place cube2:Cube2 placed:/SM_ROOT/Success">
<text text-anchor="middle" x="206.53" y="-210.1" font-family="Times,serif" font-size="6.00">Cube2 placed</text>
</a>
</g>
</g>
<!-- /SM_ROOT/IDLE&#45;&gt;/SM_ROOT/Move&#45;To cube2 -->
<g id="edge13" class="edge">
<title>/SM_ROOT/IDLE&#45;&gt;/SM_ROOT/Move&#45;To cube2</title>
<g id="a_edge13"><a xlink:href="/SM_ROOT/IDLE:Restart the task:/SM_ROOT/Move-To cube2">
<path fill="none" stroke="black" stroke-width="2" d="M108.39,-226.01C93.49,-271.22 34.05,-397.64 70.5,-496 77.03,-513.63 90.11,-529.82 100.83,-542.27"/>
<polygon fill="black" stroke="black" stroke-width="2" points="98.25,-544.63 107.44,-549.9 103.54,-540.05 98.25,-544.63"/>
</a>
</g>
<g id="a_edge13&#45;label"><a xlink:href="/SM_ROOT/IDLE:Restart the task:/SM_ROOT/Move-To cube2">
<text text-anchor="middle" x="74.77" y="-376.3" font-family="Times,serif" font-size="6.00">Restart the task</text>
</a>
</g>
</g>
<!-- /SM_ROOT/IDLE&#45;&gt;/SM_ROOT/Pick cube2 -->
<g id="edge14" class="edge">
<title>/SM_ROOT/IDLE&#45;&gt;/SM_ROOT/Pick cube2</title>
<g id="a_edge14"><a xlink:href="/SM_ROOT/IDLE:Cube2 reached:/SM_ROOT/Pick cube2">
<path fill="none" stroke="black" stroke-width="2" d="M113.89,-225.94C111.36,-260.44 91.11,-341.12 108.5,-406 112.76,-421.89 121.52,-437.9 128.21,-450.68"/>
<polygon fill="black" stroke="black" stroke-width="2" points="125.17,-452.43 132.8,-459.77 131.42,-449.27 125.17,-452.43"/>
</a>
</g>
<g id="a_edge14&#45;label"><a xlink:href="/SM_ROOT/IDLE:Cube2 reached:/SM_ROOT/Pick cube2">
<text text-anchor="middle" x="125.03" y="-338.04" font-family="Times,serif" font-size="6.00">Cube2 reached</text>
</a>
</g>
</g>
<!-- /SM_ROOT/IDLE&#45;&gt;/SM_ROOT/Move&#45;To delivery -->
<g id="edge15" class="edge">
<title>/SM_ROOT/IDLE&#45;&gt;/SM_ROOT/Move&#45;To delivery</title>
<g id="a_edge15"><a xlink:href="/SM_ROOT/IDLE:Cube2 in Hand:/SM_ROOT/Move-To delivery">
<path fill="none" stroke="black" stroke-width="2" d="M121.59,-225.17C127.99,-246.99 131.25,-286.5 146.5,-316 155.78,-333.96 171.16,-350.3 183.43,-362.77"/>
<polygon fill="black" stroke="black" stroke-width="2" points="181.07,-365.36 190.59,-370.02 186.05,-360.44 181.07,-365.36"/>
</a>
</g>
<g id="a_edge15&#45;label"><a xlink:href="/SM_ROOT/IDLE:Cube2 in Hand:/SM_ROOT/Move-To delivery">
<text text-anchor="middle" x="123.01" y="-318.21" font-family="Times,serif" font-size="6.00">Cube2 in Hand</text>
</a>
</g>
</g>
<!-- /SM_ROOT/IDLE&#45;&gt;/SM_ROOT/Place cube2 -->
<g id="edge16" class="edge">
<title>/SM_ROOT/IDLE&#45;&gt;/SM_ROOT/Place cube2</title>
<g id="a_edge16"><a xlink:href="/SM_ROOT/IDLE:Delivery pose reached:/SM_ROOT/Place cube2">
<path fill="none" stroke="black" stroke-width="2" d="M133.32,-221.11C152.88,-234.36 179,-255.94 196.29,-272.71"/>
<polygon fill="black" stroke="black" stroke-width="2" points="194.03,-275.4 203.56,-280.03 198.99,-270.47 194.03,-275.4"/>
</a>
</g>
<g id="a_edge16&#45;label"><a xlink:href="/SM_ROOT/IDLE:Delivery pose reached:/SM_ROOT/Place cube2">
<text text-anchor="middle" x="134.06" y="-244.02" font-family="Times,serif" font-size="6.00">Delivery pose reached</text>
</a>
</g>
</g>
<!-- /SM_ROOT/IDLE&#45;&gt;/SM_ROOT/IDLE -->
<g id="edge18" class="edge">
<title>/SM_ROOT/IDLE&#45;&gt;/SM_ROOT/IDLE</title>
<g id="a_edge18"><a xlink:href="/SM_ROOT/IDLE:RUNNING:/SM_ROOT/IDLE">
<path fill="none" stroke="black" stroke-width="2" d="M132.59,-221.41C155.15,-228.82 179.95,-224.35 179.95,-208 179.95,-194.02 161.8,-188.72 142.43,-192.12"/>
<polygon fill="black" stroke="black" stroke-width="2" points="141.44,-188.76 132.59,-194.59 143.14,-195.55 141.44,-188.76"/>
</a>
</g>
<g id="a_edge18&#45;label"><a xlink:href="/SM_ROOT/IDLE:RUNNING:/SM_ROOT/IDLE">
<text text-anchor="middle" x="149.12" y="-223.62" font-family="Times,serif" font-size="6.00">RUNNING</text>
</a>
</g>
</g>
<!-- /SM_ROOT/IDLE&#45;&gt;/SM_ROOT/Success -->
<g id="edge17" class="edge">
<title>/SM_ROOT/IDLE&#45;&gt;/SM_ROOT/Success</title>
<g id="a_edge17"><a xlink:href="/SM_ROOT/IDLE:Cube2 placed:/SM_ROOT/Success">
<path fill="none" stroke="black" stroke-width="2" d="M118.53,-190.45C125.52,-177.62 135.34,-159.62 143.38,-144.89"/>
<polygon fill="black" stroke="black" stroke-width="2" points="146.63,-146.23 148.35,-135.78 140.49,-142.88 146.63,-146.23"/>
</a>
</g>
<g id="a_edge17&#45;label"><a xlink:href="/SM_ROOT/IDLE:Cube2 placed:/SM_ROOT/Success">
<text text-anchor="middle" x="111.92" y="-165.35" font-family="Times,serif" font-size="6.00">Cube2 placed</text>
</a>
</g>
</g>
<!-- /SM_ROOT/Success&#45;&gt;/SM_ROOT:SUCCESS -->
<g id="edge19" class="edge">
<title>/SM_ROOT/Success&#45;&gt;/SM_ROOT:SUCCESS</title>
<g id="a_edge19"><a xlink:href="/SM_ROOT/Success:SUCCESS:/SM_ROOT/SUCCESS">
<path fill="none" stroke="#000000" stroke-width="2" stroke-opacity="0.333333" d="M157.5,-99.82C157.5,-87.05 157.5,-69.59 157.5,-56.16"/>
<polygon fill="#000000" fill-opacity="0.333333" stroke="#000000" stroke-width="2" stroke-opacity="0.333333" points="161,-56.01 157.5,-46.01 154,-56.01 161,-56.01"/>
</a>
</g>
<g id="a_edge19&#45;label"><a xlink:href="/SM_ROOT/Success:SUCCESS:/SM_ROOT/SUCCESS">
<text text-anchor="middle" x="142" y="-75.42" font-family="Times,serif" font-size="6.00">SUCCESS</text>
</a>
</g>
</g>
</g>
</svg>
