<?xml version="1.0" encoding="UTF-8" standalone="no"?>
<!DOCTYPE svg PUBLIC "-//W3C//DTD SVG 1.1//EN"
 "http://www.w3.org/Graphics/SVG/1.1/DTD/svg11.dtd">
<!-- Generated by graphviz version 2.43.0 (0)
 -->
<!-- Title: pastafarianism Pages: 1 -->
<svg width="473pt" height="404pt"
 viewBox="0.00 0.00 472.85 404.00" xmlns="http://www.w3.org/2000/svg" xmlns:xlink="http://www.w3.org/1999/xlink">
<g id="graph0" class="graph" transform="scale(1 1) rotate(0) translate(4 400)">
<title>pastafarianism</title>
<polygon fill="white" stroke="transparent" points="-4,4 -4,-400 468.85,-400 468.85,4 -4,4"/>
<!-- Fallback -->
<g id="node1" class="node">
<title>Fallback</title>
<polygon fill="cyan" stroke="black" points="253.68,-370.54 253.68,-385.46 233.19,-396 204.2,-396 183.7,-385.46 183.7,-370.54 204.2,-360 233.19,-360 253.68,-370.54"/>
<text text-anchor="middle" x="218.69" y="-375.8" font-family="Times,serif" font-size="9.00">Fallback</text>
</g>
<!-- Cube2 in delivery? -->
<g id="node2" class="node">
<title>Cube2 in delivery?</title>
<ellipse fill="lightgray" stroke="black" cx="164.69" cy="-306" rx="60.09" ry="18"/>
<text text-anchor="middle" x="164.69" y="-303.8" font-family="Times,serif" font-size="9.00">Cube2 in delivery?</text>
</g>
<!-- Fallback&#45;&gt;Cube2 in delivery? -->
<g id="edge1" class="edge">
<title>Fallback&#45;&gt;Cube2 in delivery?</title>
<path fill="none" stroke="black" d="M205.35,-359.7C198.84,-351.27 190.9,-340.97 183.77,-331.73"/>
<polygon fill="black" stroke="black" points="186.4,-329.4 177.52,-323.62 180.85,-333.68 186.4,-329.4"/>
</g>
<!-- Sequence -->
<g id="node3" class="node">
<title>Sequence</title>
<polygon fill="orange" stroke="black" points="304.69,-324 242.69,-324 242.69,-288 304.69,-288 304.69,-324"/>
<text text-anchor="middle" x="273.69" y="-303.8" font-family="Times,serif" font-size="9.00">Sequence</text>
</g>
<!-- Fallback&#45;&gt;Sequence -->
<g id="edge2" class="edge">
<title>Fallback&#45;&gt;Sequence</title>
<path fill="none" stroke="black" d="M232.29,-359.7C238.82,-351.39 246.76,-341.28 253.94,-332.14"/>
<polygon fill="black" stroke="black" points="256.83,-334.13 260.25,-324.1 251.32,-329.81 256.83,-334.13"/>
</g>
<!-- Fallback  -->
<g id="node4" class="node">
<title>Fallback </title>
<polygon fill="cyan" stroke="black" points="201.43,-226.54 201.43,-241.46 179.91,-252 149.47,-252 127.95,-241.46 127.95,-226.54 149.47,-216 179.91,-216 201.43,-226.54"/>
<text text-anchor="middle" x="164.69" y="-231.8" font-family="Times,serif" font-size="9.00">Fallback </text>
</g>
<!-- Sequence&#45;&gt;Fallback  -->
<g id="edge3" class="edge">
<title>Sequence&#45;&gt;Fallback </title>
<path fill="none" stroke="black" d="M247.03,-287.88C231.29,-277.77 211.31,-264.94 194.98,-254.45"/>
<polygon fill="black" stroke="black" points="196.64,-251.35 186.33,-248.9 192.85,-257.24 196.64,-251.35"/>
</g>
<!-- Fallback &#160;&#160; -->
<g id="node11" class="node">
<title>Fallback &#160;&#160;</title>
<polygon fill="cyan" stroke="black" points="314.43,-226.54 314.43,-241.46 290.57,-252 256.82,-252 232.95,-241.46 232.95,-226.54 256.82,-216 290.57,-216 314.43,-226.54"/>
<text text-anchor="middle" x="273.69" y="-231.8" font-family="Times,serif" font-size="9.00">Fallback &#160;&#160;</text>
</g>
<!-- Sequence&#45;&gt;Fallback &#160;&#160; -->
<g id="edge10" class="edge">
<title>Sequence&#45;&gt;Fallback &#160;&#160;</title>
<path fill="none" stroke="black" d="M273.69,-287.7C273.69,-279.98 273.69,-270.71 273.69,-262.11"/>
<polygon fill="black" stroke="black" points="277.19,-262.1 273.69,-252.1 270.19,-262.1 277.19,-262.1"/>
</g>
<!-- Place cube2! -->
<g id="node14" class="node">
<title>Place cube2!</title>
<ellipse fill="lightgray" stroke="black" cx="376.69" cy="-234" rx="44.41" ry="18"/>
<text text-anchor="middle" x="376.69" y="-231.8" font-family="Times,serif" font-size="9.00">Place cube2!</text>
</g>
<!-- Sequence&#45;&gt;Place cube2! -->
<g id="edge13" class="edge">
<title>Sequence&#45;&gt;Place cube2!</title>
<path fill="none" stroke="black" d="M298.89,-287.88C313.23,-278.13 331.29,-265.86 346.39,-255.59"/>
<polygon fill="black" stroke="black" points="348.59,-258.33 354.9,-249.81 344.66,-252.54 348.59,-258.33"/>
</g>
<!-- Cube2 in Hand? -->
<g id="node5" class="node">
<title>Cube2 in Hand?</title>
<ellipse fill="lightgray" stroke="black" cx="61.69" cy="-162" rx="52.58" ry="18"/>
<text text-anchor="middle" x="61.69" y="-159.8" font-family="Times,serif" font-size="9.00">Cube2 in Hand?</text>
</g>
<!-- Fallback &#45;&gt;Cube2 in Hand? -->
<g id="edge4" class="edge">
<title>Fallback &#45;&gt;Cube2 in Hand?</title>
<path fill="none" stroke="black" d="M143.35,-218.5C128.83,-208.63 109.38,-195.41 93.1,-184.35"/>
<polygon fill="black" stroke="black" points="94.67,-181.18 84.44,-178.46 90.74,-186.97 94.67,-181.18"/>
</g>
<!-- Sequence  -->
<g id="node6" class="node">
<title>Sequence </title>
<polygon fill="orange" stroke="black" points="197.19,-180 132.19,-180 132.19,-144 197.19,-144 197.19,-180"/>
<text text-anchor="middle" x="164.69" y="-159.8" font-family="Times,serif" font-size="9.00">Sequence </text>
</g>
<!-- Fallback &#45;&gt;Sequence  -->
<g id="edge5" class="edge">
<title>Fallback &#45;&gt;Sequence </title>
<path fill="none" stroke="black" d="M164.69,-215.7C164.69,-207.98 164.69,-198.71 164.69,-190.11"/>
<polygon fill="black" stroke="black" points="168.19,-190.1 164.69,-180.1 161.19,-190.1 168.19,-190.1"/>
</g>
<!-- Fallback &#160; -->
<g id="node7" class="node">
<title>Fallback &#160;</title>
<polygon fill="cyan" stroke="black" points="154.69,-82.54 154.69,-97.46 131.84,-108 99.54,-108 76.7,-97.46 76.7,-82.54 99.54,-72 131.84,-72 154.69,-82.54"/>
<text text-anchor="middle" x="115.69" y="-87.8" font-family="Times,serif" font-size="9.00">Fallback &#160;</text>
</g>
<!-- Sequence &#45;&gt;Fallback &#160; -->
<g id="edge6" class="edge">
<title>Sequence &#45;&gt;Fallback &#160;</title>
<path fill="none" stroke="black" d="M152.58,-143.7C146.83,-135.47 139.83,-125.48 133.49,-116.42"/>
<polygon fill="black" stroke="black" points="136.27,-114.29 127.67,-108.1 130.53,-118.3 136.27,-114.29"/>
</g>
<!-- Pick cube2! -->
<g id="node10" class="node">
<title>Pick cube2!</title>
<ellipse fill="lightgray" stroke="black" cx="213.69" cy="-90" rx="40.98" ry="18"/>
<text text-anchor="middle" x="213.69" y="-87.8" font-family="Times,serif" font-size="9.00">Pick cube2!</text>
</g>
<!-- Sequence &#45;&gt;Pick cube2! -->
<g id="edge9" class="edge">
<title>Sequence &#45;&gt;Pick cube2!</title>
<path fill="none" stroke="black" d="M176.81,-143.7C182.65,-135.35 189.76,-125.18 196.18,-116.02"/>
<polygon fill="black" stroke="black" points="199.19,-117.82 202.06,-107.62 193.46,-113.81 199.19,-117.82"/>
</g>
<!-- Robot&#45;At cube2? -->
<g id="node8" class="node">
<title>Robot&#45;At cube2?</title>
<ellipse fill="lightgray" stroke="black" cx="53.69" cy="-18" rx="53.89" ry="18"/>
<text text-anchor="middle" x="53.69" y="-15.8" font-family="Times,serif" font-size="9.00">Robot&#45;At cube2?</text>
</g>
<!-- Fallback &#160;&#45;&gt;Robot&#45;At cube2? -->
<g id="edge7" class="edge">
<title>Fallback &#160;&#45;&gt;Robot&#45;At cube2?</title>
<path fill="none" stroke="black" d="M100.37,-71.7C92.75,-63.09 83.41,-52.55 75.1,-43.17"/>
<polygon fill="black" stroke="black" points="77.67,-40.79 68.42,-35.62 72.43,-45.43 77.67,-40.79"/>
</g>
<!-- Move&#45;To cube2! -->
<g id="node9" class="node">
<title>Move&#45;To cube2!</title>
<ellipse fill="lightgray" stroke="black" cx="177.69" cy="-18" rx="51.92" ry="18"/>
<text text-anchor="middle" x="177.69" y="-15.8" font-family="Times,serif" font-size="9.00">Move&#45;To cube2!</text>
</g>
<!-- Fallback &#160;&#45;&gt;Move&#45;To cube2! -->
<g id="edge8" class="edge">
<title>Fallback &#160;&#45;&gt;Move&#45;To cube2!</title>
<path fill="none" stroke="black" d="M131.02,-71.7C138.64,-63.09 147.97,-52.55 156.29,-43.17"/>
<polygon fill="black" stroke="black" points="158.96,-45.43 162.97,-35.62 153.72,-40.79 158.96,-45.43"/>
</g>
<!-- Robot&#45;At delivery? -->
<g id="node12" class="node">
<title>Robot&#45;At delivery?</title>
<ellipse fill="lightgray" stroke="black" cx="273.69" cy="-162" rx="58.78" ry="18"/>
<text text-anchor="middle" x="273.69" y="-159.8" font-family="Times,serif" font-size="9.00">Robot&#45;At delivery?</text>
</g>
<!-- Fallback &#160;&#160;&#45;&gt;Robot&#45;At delivery? -->
<g id="edge11" class="edge">
<title>Fallback &#160;&#160;&#45;&gt;Robot&#45;At delivery?</title>
<path fill="none" stroke="black" d="M273.69,-215.7C273.69,-207.98 273.69,-198.71 273.69,-190.11"/>
<polygon fill="black" stroke="black" points="277.19,-190.1 273.69,-180.1 270.19,-190.1 277.19,-190.1"/>
</g>
<!-- Move&#45;To delivery! -->
<g id="node13" class="node">
<title>Move&#45;To delivery!</title>
<ellipse fill="lightgray" stroke="black" cx="407.69" cy="-162" rx="57.32" ry="18"/>
<text text-anchor="middle" x="407.69" y="-159.8" font-family="Times,serif" font-size="9.00">Move&#45;To delivery!</text>
</g>
<!-- Fallback &#160;&#160;&#45;&gt;Move&#45;To delivery! -->
<g id="edge12" class="edge">
<title>Fallback &#160;&#160;&#45;&gt;Move&#45;To delivery!</title>
<path fill="none" stroke="black" d="M299.21,-219.67C319.37,-209.14 347.78,-194.3 370.47,-182.44"/>
<polygon fill="black" stroke="black" points="372.25,-185.47 379.49,-177.73 369.01,-179.26 372.25,-185.47"/>
</g>
</g>
</svg>
