<?xml version="1.0" encoding="UTF-8" standalone="no"?>
<!DOCTYPE svg PUBLIC "-//W3C//DTD SVG 1.1//EN"
 "http://www.w3.org/Graphics/SVG/1.1/DTD/svg11.dtd">
<!-- Generated by graphviz version 2.43.0 (0)
 -->
<!-- Title: G Pages: 1 -->
<svg width="420pt" height="782pt"
 viewBox="0.00 0.00 420.39 782.00" xmlns="http://www.w3.org/2000/svg" xmlns:xlink="http://www.w3.org/1999/xlink">
<g id="graph0" class="graph" transform="scale(1 1) rotate(0) translate(4 778)">
<title>G</title>
<polygon fill="white" stroke="transparent" points="-4,4 -4,-778 416.39,-778 416.39,4 -4,4"/>
<g id="clust1" class="cluster">
<title>cluster_/SM_ROOT</title>
<polygon fill="none" stroke="transparent" points="8,-8 8,-766 402,-766 402,-8 8,-8"/>
</g>
<g id="clust2" class="cluster">
<title>cluster_/SM_ROOT/__outcomes__</title>
<path fill="#ffffff" stroke="#ffffff" d="M159,-16C159,-16 229,-16 229,-16 235,-16 241,-22 241,-28 241,-28 241,-42 241,-42 241,-48 235,-54 229,-54 229,-54 159,-54 159,-54 153,-54 147,-48 147,-42 147,-42 147,-28 147,-28 147,-22 153,-16 159,-16"/>
</g>
<!-- /SM_ROOT/__proxy__ -->
<g id="node1" class="node">
<title>/SM_ROOT/__proxy__</title>
<g id="a_node1"><a xlink:href="/SM_ROOT" xlink:title="SM_ROOT">
<text text-anchor="middle" x="286" y="-739.6" font-family="Times,serif" font-size="18.00">SM_ROOT</text>
</a>
</g>
</g>
<!-- /SM_ROOT/Move&#45;To cube2 -->
<g id="node3" class="node">
<title>/SM_ROOT/Move&#45;To cube2</title>
<g id="a_node3"><a xlink:href="/SM_ROOT/Move-To cube2" xlink:title="Move&#45;To cube2">
<ellipse fill="#ffffff" stroke="#000000" stroke-width="2" cx="286" cy="-658" rx="80.69" ry="18"/>
<text text-anchor="middle" x="286" y="-654.3" font-family="Times,serif" font-size="14.00">Move&#45;To cube2</text>
</a>
</g>
</g>
<!-- /SM_ROOT/__proxy__&#45;&gt;/SM_ROOT/Move&#45;To cube2 -->
<g id="edge27" class="edge">
<title>/SM_ROOT/__proxy__&#45;&gt;/SM_ROOT/Move&#45;To cube2</title>
<g id="a_edge27"><a xlink:href="/SM_ROOT/__proxy__::/SM_ROOT/Move-To cube2">
<path fill="none" stroke="black" stroke-width="2" d="M286,-729.88C286,-718.22 286,-700.8 286,-686.16"/>
<polygon fill="black" stroke="black" stroke-width="2" points="289.5,-686.1 286,-676.1 282.5,-686.1 289.5,-686.1"/>
</a>
</g>
</g>
<!-- /SM_ROOT:SUCCESS -->
<g id="node2" class="node">
<title>/SM_ROOT:SUCCESS</title>
<g id="a_node2"><a xlink:href="/SM_ROOT:SUCCESS" xlink:title="SUCCESS">
<path fill="#2ecc71" stroke="#1e8449" d="M225.67,-46C225.67,-46 162.33,-46 162.33,-46 158.67,-46 155,-42.33 155,-38.67 155,-38.67 155,-31.33 155,-31.33 155,-27.67 158.67,-24 162.33,-24 162.33,-24 225.67,-24 225.67,-24 229.33,-24 233,-27.67 233,-31.33 233,-31.33 233,-38.67 233,-38.67 233,-42.33 229.33,-46 225.67,-46"/>
<text text-anchor="middle" x="194" y="-31.9" font-family="Times,serif" font-size="12.00" fill="#1e8449">SUCCESS</text>
</a>
</g>
</g>
<!-- /SM_ROOT/Move&#45;To cube2&#45;&gt;/SM_ROOT/Move&#45;To cube2 -->
<g id="edge2" class="edge">
<title>/SM_ROOT/Move&#45;To cube2&#45;&gt;/SM_ROOT/Move&#45;To cube2</title>
<g id="a_edge2"><a xlink:href="/SM_ROOT/Move-To cube2:RUNNING:/SM_ROOT/Move-To cube2">
<path fill="none" stroke="black" stroke-width="2" d="M334.21,-672.43C368.52,-677.05 402.59,-672.24 402.59,-658 402.59,-645.15 374.85,-639.98 344.22,-642.49"/>
<polygon fill="black" stroke="black" stroke-width="2" points="343.78,-639.02 334.21,-643.57 344.53,-645.97 343.78,-639.02"/>
</a>
</g>
<g id="a_edge2&#45;label"><a xlink:href="/SM_ROOT/Move-To cube2:RUNNING:/SM_ROOT/Move-To cube2">
<text text-anchor="middle" x="350.81" y="-674.64" font-family="Times,serif" font-size="6.00">RUNNING</text>
</a>
</g>
</g>
<!-- /SM_ROOT/Pick cube2 -->
<g id="node4" class="node">
<title>/SM_ROOT/Pick cube2</title>
<g id="a_node4"><a xlink:href="/SM_ROOT/Pick cube2" xlink:title="Pick cube2">
<ellipse fill="#ffffff" stroke="#000000" stroke-width="2" cx="277" cy="-568" rx="61.19" ry="18"/>
<text text-anchor="middle" x="277" y="-564.3" font-family="Times,serif" font-size="14.00">Pick cube2</text>
</a>
</g>
</g>
<!-- /SM_ROOT/Move&#45;To cube2&#45;&gt;/SM_ROOT/Pick cube2 -->
<g id="edge1" class="edge">
<title>/SM_ROOT/Move&#45;To cube2&#45;&gt;/SM_ROOT/Pick cube2</title>
<g id="a_edge1"><a xlink:href="/SM_ROOT/Move-To cube2:Cube2 reached:/SM_ROOT/Pick cube2">
<path fill="none" stroke="black" stroke-width="2" d="M284.22,-639.61C282.96,-627.24 281.23,-610.37 279.78,-596.22"/>
<polygon fill="black" stroke="black" stroke-width="2" points="283.24,-595.64 278.74,-586.05 276.28,-596.35 283.24,-595.64"/>
</a>
</g>
<g id="a_edge1&#45;label"><a xlink:href="/SM_ROOT/Move-To cube2:Cube2 reached:/SM_ROOT/Pick cube2">
<text text-anchor="middle" x="257.95" y="-614.75" font-family="Times,serif" font-size="6.00">Cube2 reached</text>
</a>
</g>
</g>
<!-- /SM_ROOT/Recharge! -->
<g id="node7" class="node">
<title>/SM_ROOT/Recharge!</title>
<g id="a_node7"><a xlink:href="/SM_ROOT/Recharge!" xlink:title="Recharge!">
<ellipse fill="#ffffff" stroke="#000000" stroke-width="2" cx="204" cy="-298" rx="58.49" ry="18"/>
<text text-anchor="middle" x="204" y="-294.3" font-family="Times,serif" font-size="14.00">Recharge!</text>
</a>
</g>
</g>
<!-- /SM_ROOT/Move&#45;To cube2&#45;&gt;/SM_ROOT/Recharge! -->
<g id="edge4" class="edge">
<title>/SM_ROOT/Move&#45;To cube2&#45;&gt;/SM_ROOT/Recharge!</title>
<g id="a_edge4"><a xlink:href="/SM_ROOT/Move-To cube2:Battery below 20%:/SM_ROOT/Recharge!">
<path fill="none" stroke="black" stroke-width="2" d="M250.89,-641.59C202.45,-618.15 117.13,-568.47 82,-496 75.02,-481.6 73.75,-473.71 82,-460 108.46,-416.06 153.6,-447.32 184,-406 200.92,-383 204.84,-349.89 205.2,-326.6"/>
<polygon fill="black" stroke="black" stroke-width="2" points="208.7,-326.34 205.15,-316.36 201.7,-326.38 208.7,-326.34"/>
</a>
</g>
<g id="a_edge4&#45;label"><a xlink:href="/SM_ROOT/Move-To cube2:Battery below 20%:/SM_ROOT/Recharge!">
<text text-anchor="middle" x="144.01" y="-418.53" font-family="Times,serif" font-size="6.00">Battery below 20%</text>
</a>
</g>
</g>
<!-- /SM_ROOT/IDLE -->
<g id="node8" class="node">
<title>/SM_ROOT/IDLE</title>
<g id="a_node8"><a xlink:href="/SM_ROOT/IDLE" xlink:title="IDLE">
<ellipse fill="#ffffff" stroke="#000000" stroke-width="2" cx="317" cy="-208" rx="34.39" ry="18"/>
<text text-anchor="middle" x="317" y="-204.3" font-family="Times,serif" font-size="14.00">IDLE</text>
</a>
</g>
</g>
<!-- /SM_ROOT/Move&#45;To cube2&#45;&gt;/SM_ROOT/IDLE -->
<g id="edge3" class="edge">
<title>/SM_ROOT/Move&#45;To cube2&#45;&gt;/SM_ROOT/IDLE</title>
<g id="a_edge3"><a xlink:href="/SM_ROOT/Move-To cube2:FAILURE:/SM_ROOT/IDLE">
<path fill="none" stroke="black" stroke-width="2" d="M301.26,-640.25C318.08,-627.86 342.32,-609.15 356,-586 380.58,-544.42 375,-527.3 375,-479 375,-479 375,-479 375,-387 375,-329.2 340.68,-268.71 323.63,-235.24"/>
<polygon fill="black" stroke="black" stroke-width="2" points="326.71,-233.56 319.14,-226.15 320.43,-236.66 326.71,-233.56"/>
</a>
</g>
<g id="a_edge3&#45;label"><a xlink:href="/SM_ROOT/Move-To cube2:FAILURE:/SM_ROOT/IDLE">
<text text-anchor="middle" x="361" y="-469.7" font-family="Times,serif" font-size="6.00">FAILURE</text>
</a>
</g>
</g>
<!-- /SM_ROOT/Pick cube2&#45;&gt;/SM_ROOT/Pick cube2 -->
<g id="edge6" class="edge">
<title>/SM_ROOT/Pick cube2&#45;&gt;/SM_ROOT/Pick cube2</title>
<g id="a_edge6"><a xlink:href="/SM_ROOT/Pick cube2:RUNNING:/SM_ROOT/Pick cube2">
<path fill="none" stroke="black" stroke-width="2" d="M313.61,-582.45C343.33,-588.33 374.09,-583.51 374.09,-568 374.09,-554.24 349.9,-548.9 323.7,-551.96"/>
<polygon fill="black" stroke="black" stroke-width="2" points="322.94,-548.54 313.61,-553.55 324.03,-555.45 322.94,-548.54"/>
</a>
</g>
<g id="a_edge6&#45;label"><a xlink:href="/SM_ROOT/Pick cube2:RUNNING:/SM_ROOT/Pick cube2">
<text text-anchor="middle" x="330.15" y="-584.66" font-family="Times,serif" font-size="6.00">RUNNING</text>
</a>
</g>
</g>
<!-- /SM_ROOT/Move&#45;To delivery -->
<g id="node5" class="node">
<title>/SM_ROOT/Move&#45;To delivery</title>
<g id="a_node5"><a xlink:href="/SM_ROOT/Move-To delivery" xlink:title="Move&#45;To delivery">
<ellipse fill="#ffffff" stroke="#000000" stroke-width="2" cx="210" cy="-478" rx="90.18" ry="18"/>
<text text-anchor="middle" x="210" y="-474.3" font-family="Times,serif" font-size="14.00">Move&#45;To delivery</text>
</a>
</g>
</g>
<!-- /SM_ROOT/Pick cube2&#45;&gt;/SM_ROOT/Move&#45;To delivery -->
<g id="edge5" class="edge">
<title>/SM_ROOT/Pick cube2&#45;&gt;/SM_ROOT/Move&#45;To delivery</title>
<g id="a_edge5"><a xlink:href="/SM_ROOT/Pick cube2:Cube2 in Hand:/SM_ROOT/Move-To delivery">
<path fill="none" stroke="black" stroke-width="2" d="M264.08,-550.03C254.16,-537.01 240.32,-518.82 229.12,-504.11"/>
<polygon fill="black" stroke="black" stroke-width="2" points="231.72,-501.75 222.88,-495.92 226.15,-505.99 231.72,-501.75"/>
</a>
</g>
<g id="a_edge5&#45;label"><a xlink:href="/SM_ROOT/Pick cube2:Cube2 in Hand:/SM_ROOT/Move-To delivery">
<text text-anchor="middle" x="219.85" y="-525" font-family="Times,serif" font-size="6.00">Cube2 in Hand</text>
</a>
</g>
</g>
<!-- /SM_ROOT/Pick cube2&#45;&gt;/SM_ROOT/Recharge! -->
<g id="edge8" class="edge">
<title>/SM_ROOT/Pick cube2&#45;&gt;/SM_ROOT/Recharge!</title>
<g id="a_edge8"><a xlink:href="/SM_ROOT/Pick cube2:Battery below 20%:/SM_ROOT/Recharge!">
<path fill="none" stroke="black" stroke-width="2" d="M220.96,-560.61C180.45,-552.73 128.37,-535.16 102,-496 51.56,-421.1 202.44,-422.88 213,-406 228.07,-381.91 222,-348.57 214.63,-325.54"/>
<polygon fill="black" stroke="black" stroke-width="2" points="217.92,-324.35 211.33,-316.05 211.31,-326.65 217.92,-324.35"/>
</a>
</g>
<g id="a_edge8&#45;label"><a xlink:href="/SM_ROOT/Pick cube2:Battery below 20%:/SM_ROOT/Recharge!">
<text text-anchor="middle" x="235.88" y="-413.03" font-family="Times,serif" font-size="6.00">Battery below 20%</text>
</a>
</g>
</g>
<!-- /SM_ROOT/Pick cube2&#45;&gt;/SM_ROOT/IDLE -->
<g id="edge7" class="edge">
<title>/SM_ROOT/Pick cube2&#45;&gt;/SM_ROOT/IDLE</title>
<g id="a_edge7"><a xlink:href="/SM_ROOT/Pick cube2:FAILURE:/SM_ROOT/IDLE">
<path fill="none" stroke="black" stroke-width="2" d="M282.15,-550.03C292.96,-536.91 310.27,-517.4 318,-496 350.71,-405.46 323.38,-288.52 315.57,-236.29"/>
<polygon fill="black" stroke="black" stroke-width="2" points="319.02,-235.62 314.23,-226.16 312.08,-236.54 319.02,-235.62"/>
</a>
</g>
<g id="a_edge7&#45;label"><a xlink:href="/SM_ROOT/Pick cube2:FAILURE:/SM_ROOT/IDLE">
<text text-anchor="middle" x="319.66" y="-389.44" font-family="Times,serif" font-size="6.00">FAILURE</text>
</a>
</g>
</g>
<!-- /SM_ROOT/Move&#45;To delivery&#45;&gt;/SM_ROOT/Move&#45;To delivery -->
<g id="edge10" class="edge">
<title>/SM_ROOT/Move&#45;To delivery&#45;&gt;/SM_ROOT/Move&#45;To delivery</title>
<g id="a_edge10"><a xlink:href="/SM_ROOT/Move-To delivery:RUNNING:/SM_ROOT/Move-To delivery">
<path fill="none" stroke="black" stroke-width="2" d="M260.92,-492.93C298.54,-498.05 336.34,-493.07 336.34,-478 336.34,-464.28 305.03,-458.93 271.04,-461.94"/>
<polygon fill="black" stroke="black" stroke-width="2" points="270.47,-458.48 260.92,-463.07 271.25,-465.44 270.47,-458.48"/>
</a>
</g>
<g id="a_edge10&#45;label"><a xlink:href="/SM_ROOT/Move-To delivery:RUNNING:/SM_ROOT/Move-To delivery">
<text text-anchor="middle" x="244.53" y="-495.14" font-family="Times,serif" font-size="6.00">RUNNING</text>
</a>
</g>
</g>
<!-- /SM_ROOT/Place cube2 -->
<g id="node6" class="node">
<title>/SM_ROOT/Place cube2</title>
<g id="a_node6"><a xlink:href="/SM_ROOT/Place cube2" xlink:title="Place cube2">
<ellipse fill="#ffffff" stroke="#000000" stroke-width="2" cx="82" cy="-388" rx="66.09" ry="18"/>
<text text-anchor="middle" x="82" y="-384.3" font-family="Times,serif" font-size="14.00">Place cube2</text>
</a>
</g>
</g>
<!-- /SM_ROOT/Move&#45;To delivery&#45;&gt;/SM_ROOT/Place cube2 -->
<g id="edge9" class="edge">
<title>/SM_ROOT/Move&#45;To delivery&#45;&gt;/SM_ROOT/Place cube2</title>
<g id="a_edge9"><a xlink:href="/SM_ROOT/Move-To delivery:Delivery pose reached:/SM_ROOT/Place cube2">
<path fill="none" stroke="black" stroke-width="2" d="M185.92,-460.45C165.47,-446.38 135.95,-426.09 113.59,-410.72"/>
<polygon fill="black" stroke="black" stroke-width="2" points="115.33,-407.67 105.11,-404.89 111.36,-413.43 115.33,-407.67"/>
</a>
</g>
<g id="a_edge9&#45;label"><a xlink:href="/SM_ROOT/Move-To delivery:Delivery pose reached:/SM_ROOT/Place cube2">
<text text-anchor="middle" x="109.89" y="-434.78" font-family="Times,serif" font-size="6.00">Delivery pose reached</text>
</a>
</g>
</g>
<!-- /SM_ROOT/Move&#45;To delivery&#45;&gt;/SM_ROOT/Recharge! -->
<g id="edge12" class="edge">
<title>/SM_ROOT/Move&#45;To delivery&#45;&gt;/SM_ROOT/Recharge!</title>
<g id="a_edge12"><a xlink:href="/SM_ROOT/Move-To delivery:Battery below 20%:/SM_ROOT/Recharge!">
<path fill="none" stroke="black" stroke-width="2" d="M224.07,-459.85C239.47,-438.94 260.75,-402.38 251,-370 245.9,-353.05 235.28,-336.42 225.43,-323.52"/>
<polygon fill="black" stroke="black" stroke-width="2" points="228.1,-321.25 219.13,-315.61 222.63,-325.62 228.1,-321.25"/>
</a>
</g>
<g id="a_edge12&#45;label"><a xlink:href="/SM_ROOT/Move-To delivery:Battery below 20%:/SM_ROOT/Recharge!">
<text text-anchor="middle" x="220.49" y="-372.18" font-family="Times,serif" font-size="6.00">Battery below 20%</text>
</a>
</g>
</g>
<!-- /SM_ROOT/Move&#45;To delivery&#45;&gt;/SM_ROOT/IDLE -->
<g id="edge11" class="edge">
<title>/SM_ROOT/Move&#45;To delivery&#45;&gt;/SM_ROOT/IDLE</title>
<g id="a_edge11"><a xlink:href="/SM_ROOT/Move-To delivery:FAILURE:/SM_ROOT/IDLE">
<path fill="none" stroke="black" stroke-width="2" d="M209.9,-459.74C217.79,-445.86 233.18,-425.51 244,-406 264.89,-368.32 268.17,-357.43 280,-316 287.83,-288.59 293.03,-256.27 299.68,-234.38"/>
<polygon fill="black" stroke="black" stroke-width="2" points="303.03,-235.42 302.97,-224.82 296.41,-233.14 303.03,-235.42"/>
</a>
</g>
<g id="a_edge11&#45;label"><a xlink:href="/SM_ROOT/Move-To delivery:FAILURE:/SM_ROOT/IDLE">
<text text-anchor="middle" x="256.83" y="-349.18" font-family="Times,serif" font-size="6.00">FAILURE</text>
</a>
</g>
</g>
<!-- /SM_ROOT/Place cube2&#45;&gt;/SM_ROOT/Place cube2 -->
<g id="edge14" class="edge">
<title>/SM_ROOT/Place cube2&#45;&gt;/SM_ROOT/Place cube2</title>
<g id="a_edge14"><a xlink:href="/SM_ROOT/Place cube2:RUNNING:/SM_ROOT/Place cube2">
<path fill="none" stroke="black" stroke-width="2" d="M121.1,-402.55C152.24,-408.28 184.29,-403.42 184.29,-388 184.29,-374.26 158.87,-368.91 131.31,-371.95"/>
<polygon fill="black" stroke="black" stroke-width="2" points="130.49,-368.53 121.1,-373.45 131.5,-375.46 130.49,-368.53"/>
</a>
</g>
<g id="a_edge14&#45;label"><a xlink:href="/SM_ROOT/Place cube2:RUNNING:/SM_ROOT/Place cube2">
<text text-anchor="middle" x="137.65" y="-404.76" font-family="Times,serif" font-size="6.00">RUNNING</text>
</a>
</g>
</g>
<!-- /SM_ROOT/Place cube2&#45;&gt;/SM_ROOT/Recharge! -->
<g id="edge16" class="edge">
<title>/SM_ROOT/Place cube2&#45;&gt;/SM_ROOT/Recharge!</title>
<g id="a_edge16"><a xlink:href="/SM_ROOT/Place cube2:Battery below 20%:/SM_ROOT/Recharge!">
<path fill="none" stroke="black" stroke-width="2" d="M104.38,-370.86C123.93,-356.75 152.48,-336.16 174.01,-320.63"/>
<polygon fill="black" stroke="black" stroke-width="2" points="176.11,-323.43 182.18,-314.74 172.02,-317.75 176.11,-323.43"/>
</a>
</g>
<g id="a_edge16&#45;label"><a xlink:href="/SM_ROOT/Place cube2:Battery below 20%:/SM_ROOT/Recharge!">
<text text-anchor="middle" x="112.85" y="-344.95" font-family="Times,serif" font-size="6.00">Battery below 20%</text>
</a>
</g>
</g>
<!-- /SM_ROOT/Place cube2&#45;&gt;/SM_ROOT/IDLE -->
<g id="edge15" class="edge">
<title>/SM_ROOT/Place cube2&#45;&gt;/SM_ROOT/IDLE</title>
<g id="a_edge15"><a xlink:href="/SM_ROOT/Place cube2:FAILURE:/SM_ROOT/IDLE">
<path fill="none" stroke="black" stroke-width="2" d="M72.99,-369.78C72.03,-346.4 84.11,-304.71 110,-280 154.32,-237.7 226.22,-220.07 273.11,-213.13"/>
<polygon fill="black" stroke="black" stroke-width="2" points="273.87,-216.56 283.3,-211.74 272.92,-209.63 273.87,-216.56"/>
</a>
</g>
<g id="a_edge15&#45;label"><a xlink:href="/SM_ROOT/Place cube2:FAILURE:/SM_ROOT/IDLE">
<text text-anchor="middle" x="142.05" y="-250.35" font-family="Times,serif" font-size="6.00">FAILURE</text>
</a>
</g>
</g>
<!-- /SM_ROOT/Success -->
<g id="node9" class="node">
<title>/SM_ROOT/Success</title>
<g id="a_node9"><a xlink:href="/SM_ROOT/Success" xlink:title="Success">
<ellipse fill="#ffffff" stroke="#000000" stroke-width="2" cx="194" cy="-118" rx="48.19" ry="18"/>
<text text-anchor="middle" x="194" y="-114.3" font-family="Times,serif" font-size="14.00">Success</text>
</a>
</g>
</g>
<!-- /SM_ROOT/Place cube2&#45;&gt;/SM_ROOT/Success -->
<g id="edge13" class="edge">
<title>/SM_ROOT/Place cube2&#45;&gt;/SM_ROOT/Success</title>
<g id="a_edge13"><a xlink:href="/SM_ROOT/Place cube2:Cube2 placed:/SM_ROOT/Success">
<path fill="none" stroke="black" stroke-width="2" d="M81.85,-369.81C82.17,-348.24 84.38,-310.39 95,-280 113.32,-227.56 150.7,-174.07 173.93,-143.85"/>
<polygon fill="black" stroke="black" stroke-width="2" points="176.97,-145.64 180.36,-135.61 171.45,-141.34 176.97,-145.64"/>
</a>
</g>
<g id="a_edge13&#45;label"><a xlink:href="/SM_ROOT/Place cube2:Cube2 placed:/SM_ROOT/Success">
<text text-anchor="middle" x="89.39" y="-244.86" font-family="Times,serif" font-size="6.00">Cube2 placed</text>
</a>
</g>
</g>
<!-- /SM_ROOT/Recharge!&#45;&gt;/SM_ROOT/Recharge! -->
<g id="edge17" class="edge">
<title>/SM_ROOT/Recharge!&#45;&gt;/SM_ROOT/Recharge!</title>
<g id="a_edge17"><a xlink:href="/SM_ROOT/Recharge!:RUNNING:/SM_ROOT/Recharge!">
<path fill="none" stroke="black" stroke-width="2" d="M239.38,-312.4C268.38,-318.36 298.49,-313.56 298.49,-298 298.49,-284.27 275.02,-278.92 249.57,-281.95"/>
<polygon fill="black" stroke="black" stroke-width="2" points="248.69,-278.54 239.38,-283.6 249.81,-285.45 248.69,-278.54"/>
</a>
</g>
<g id="a_edge17&#45;label"><a xlink:href="/SM_ROOT/Recharge!:RUNNING:/SM_ROOT/Recharge!">
<text text-anchor="middle" x="255.92" y="-314.61" font-family="Times,serif" font-size="6.00">RUNNING</text>
</a>
</g>
</g>
<!-- /SM_ROOT/Recharge!&#45;&gt;/SM_ROOT/IDLE -->
<g id="edge18" class="edge">
<title>/SM_ROOT/Recharge!&#45;&gt;/SM_ROOT/IDLE</title>
<g id="a_edge18"><a xlink:href="/SM_ROOT/Recharge!:SUCCESS:/SM_ROOT/IDLE">
<path fill="none" stroke="black" stroke-width="2" d="M214.87,-280.03C231.25,-264.62 260.28,-241.98 283.6,-226.43"/>
<polygon fill="black" stroke="black" stroke-width="2" points="285.73,-229.22 292.22,-220.85 281.92,-223.35 285.73,-229.22"/>
</a>
</g>
<g id="a_edge18&#45;label"><a xlink:href="/SM_ROOT/Recharge!:SUCCESS:/SM_ROOT/IDLE">
<text text-anchor="middle" x="236.92" y="-251.02" font-family="Times,serif" font-size="6.00">SUCCESS</text>
</a>
</g>
</g>
<!-- /SM_ROOT/IDLE&#45;&gt;/SM_ROOT/Move&#45;To cube2 -->
<g id="edge19" class="edge">
<title>/SM_ROOT/IDLE&#45;&gt;/SM_ROOT/Move&#45;To cube2</title>
<g id="a_edge19"><a xlink:href="/SM_ROOT/IDLE:Restart the task:/SM_ROOT/Move-To cube2">
<path fill="none" stroke="black" stroke-width="2" d="M337.49,-222.9C366.45,-251.79 411,-321.14 411,-387 411,-479 411,-479 411,-479 411,-527.3 416.58,-544.42 392,-586 379.33,-607.44 357.6,-625.07 336.72,-637.4"/>
<polygon fill="black" stroke="black" stroke-width="2" points="334.87,-634.42 327.85,-642.35 338.28,-640.53 334.87,-634.42"/>
</a>
</g>
<g id="a_edge19&#45;label"><a xlink:href="/SM_ROOT/IDLE:Restart the task:/SM_ROOT/Move-To cube2">
<text text-anchor="middle" x="386" y="-442.41" font-family="Times,serif" font-size="6.00">Restart the task</text>
</a>
</g>
</g>
<!-- /SM_ROOT/IDLE&#45;&gt;/SM_ROOT/Pick cube2 -->
<g id="edge20" class="edge">
<title>/SM_ROOT/IDLE&#45;&gt;/SM_ROOT/Pick cube2</title>
<g id="a_edge20"><a xlink:href="/SM_ROOT/IDLE:Cube2 reached:/SM_ROOT/Pick cube2">
<path fill="none" stroke="black" stroke-width="2" d="M330.65,-224.86C354.52,-269.29 389.38,-398.08 354,-496 347,-515.38 332.14,-533.21 316.81,-546.15"/>
<polygon fill="black" stroke="black" stroke-width="2" points="314.49,-543.52 308.79,-552.45 318.82,-549.02 314.49,-543.52"/>
</a>
</g>
<g id="a_edge20&#45;label"><a xlink:href="/SM_ROOT/IDLE:Cube2 reached:/SM_ROOT/Pick cube2">
<text text-anchor="middle" x="345.32" y="-382.1" font-family="Times,serif" font-size="6.00">Cube2 reached</text>
</a>
</g>
</g>
<!-- /SM_ROOT/IDLE&#45;&gt;/SM_ROOT/Move&#45;To delivery -->
<g id="edge21" class="edge">
<title>/SM_ROOT/IDLE&#45;&gt;/SM_ROOT/Move&#45;To delivery</title>
<g id="a_edge21"><a xlink:href="/SM_ROOT/IDLE:Cube2 in Hand:/SM_ROOT/Move-To delivery">
<path fill="none" stroke="black" stroke-width="2" d="M327.52,-225.19C330.55,-246.35 325.01,-284.43 316,-316 304.17,-357.43 300.89,-368.32 280,-406 270.71,-422.75 258.04,-440.13 245.42,-453.5"/>
<polygon fill="black" stroke="black" stroke-width="2" points="242.64,-451.33 238.03,-460.87 247.58,-456.29 242.64,-451.33"/>
</a>
</g>
<g id="a_edge21&#45;label"><a xlink:href="/SM_ROOT/IDLE:Cube2 in Hand:/SM_ROOT/Move-To delivery">
<text text-anchor="middle" x="329.06" y="-353.06" font-family="Times,serif" font-size="6.00">Cube2 in Hand</text>
</a>
</g>
</g>
<!-- /SM_ROOT/IDLE&#45;&gt;/SM_ROOT/Place cube2 -->
<g id="edge22" class="edge">
<title>/SM_ROOT/IDLE&#45;&gt;/SM_ROOT/Place cube2</title>
<g id="a_edge22"><a xlink:href="/SM_ROOT/IDLE:Delivery pose reached:/SM_ROOT/Place cube2">
<path fill="none" stroke="black" stroke-width="2" d="M285.41,-215.68C247.48,-224.03 185.68,-242.13 146,-280 123.12,-301.84 111.02,-336.95 100.97,-360.95"/>
<polygon fill="black" stroke="black" stroke-width="2" points="97.73,-359.61 96.91,-370.17 104.14,-362.43 97.73,-359.61"/>
</a>
</g>
<g id="a_edge22&#45;label"><a xlink:href="/SM_ROOT/IDLE:Delivery pose reached:/SM_ROOT/Place cube2">
<text text-anchor="middle" x="110.5" y="-282.2" font-family="Times,serif" font-size="6.00">Delivery pose reached</text>
</a>
</g>
</g>
<!-- /SM_ROOT/IDLE&#45;&gt;/SM_ROOT/Recharge! -->
<g id="edge24" class="edge">
<title>/SM_ROOT/IDLE&#45;&gt;/SM_ROOT/Recharge!</title>
<g id="a_edge24"><a xlink:href="/SM_ROOT/IDLE:Battery below 20%:/SM_ROOT/Recharge!">
<path fill="none" stroke="black" stroke-width="2" d="M306.86,-225.27C291.62,-239.75 264.64,-260.98 241.81,-276.59"/>
<polygon fill="black" stroke="black" stroke-width="2" points="239.67,-273.81 233.3,-282.27 243.56,-279.63 239.67,-273.81"/>
</a>
</g>
<g id="a_edge24&#45;label"><a xlink:href="/SM_ROOT/IDLE:Battery below 20%:/SM_ROOT/Recharge!">
<text text-anchor="middle" x="240.68" y="-257.39" font-family="Times,serif" font-size="6.00">Battery below 20%</text>
</a>
</g>
</g>
<!-- /SM_ROOT/IDLE&#45;&gt;/SM_ROOT/IDLE -->
<g id="edge25" class="edge">
<title>/SM_ROOT/IDLE&#45;&gt;/SM_ROOT/IDLE</title>
<g id="a_edge25"><a xlink:href="/SM_ROOT/IDLE:RUNNING:/SM_ROOT/IDLE">
<path fill="none" stroke="black" stroke-width="2" d="M340.09,-221.41C362.65,-228.82 387.45,-224.35 387.45,-208 387.45,-194.02 369.3,-188.72 349.93,-192.12"/>
<polygon fill="black" stroke="black" stroke-width="2" points="348.94,-188.76 340.09,-194.59 350.64,-195.55 348.94,-188.76"/>
</a>
</g>
<g id="a_edge25&#45;label"><a xlink:href="/SM_ROOT/IDLE:RUNNING:/SM_ROOT/IDLE">
<text text-anchor="middle" x="356.62" y="-223.62" font-family="Times,serif" font-size="6.00">RUNNING</text>
</a>
</g>
</g>
<!-- /SM_ROOT/IDLE&#45;&gt;/SM_ROOT/Success -->
<g id="edge23" class="edge">
<title>/SM_ROOT/IDLE&#45;&gt;/SM_ROOT/Success</title>
<g id="a_edge23"><a xlink:href="/SM_ROOT/IDLE:Cube2 placed:/SM_ROOT/Success">
<path fill="none" stroke="black" stroke-width="2" d="M297.51,-193.06C277.69,-178.87 246.71,-156.71 223.81,-140.33"/>
<polygon fill="black" stroke="black" stroke-width="2" points="225.64,-137.33 215.47,-134.36 221.56,-143.02 225.64,-137.33"/>
</a>
</g>
<g id="a_edge23&#45;label"><a xlink:href="/SM_ROOT/IDLE:Cube2 placed:/SM_ROOT/Success">
<text text-anchor="middle" x="234.78" y="-165.76" font-family="Times,serif" font-size="6.00">Cube2 placed</text>
</a>
</g>
</g>
<!-- /SM_ROOT/Success&#45;&gt;/SM_ROOT:SUCCESS -->
<g id="edge26" class="edge">
<title>/SM_ROOT/Success&#45;&gt;/SM_ROOT:SUCCESS</title>
<g id="a_edge26"><a xlink:href="/SM_ROOT/Success:SUCCESS:/SM_ROOT/SUCCESS">
<path fill="none" stroke="#000000" stroke-width="2" stroke-opacity="0.333333" d="M194,-99.82C194,-87.05 194,-69.59 194,-56.16"/>
<polygon fill="#000000" fill-opacity="0.333333" stroke="#000000" stroke-width="2" stroke-opacity="0.333333" points="197.5,-56.01 194,-46.01 190.5,-56.01 197.5,-56.01"/>
</a>
</g>
<g id="a_edge26&#45;label"><a xlink:href="/SM_ROOT/Success:SUCCESS:/SM_ROOT/SUCCESS">
<text text-anchor="middle" x="178.5" y="-75.42" font-family="Times,serif" font-size="6.00">SUCCESS</text>
</a>
</g>
</g>
</g>
</svg>
