<?xml version="1.0" encoding="UTF-8" standalone="no"?>
<!DOCTYPE svg PUBLIC "-//W3C//DTD SVG 1.1//EN"
 "http://www.w3.org/Graphics/SVG/1.1/DTD/svg11.dtd">
<!-- Generated by graphviz version 2.43.0 (0)
 -->
<!-- Title: pastafarianism Pages: 1 -->
<svg width="585pt" height="476pt"
 viewBox="0.00 0.00 584.54 476.00" xmlns="http://www.w3.org/2000/svg" xmlns:xlink="http://www.w3.org/1999/xlink">
<g id="graph0" class="graph" transform="scale(1 1) rotate(0) translate(4 472)">
<title>pastafarianism</title>
<polygon fill="white" stroke="transparent" points="-4,4 -4,-472 580.54,-472 580.54,4 -4,4"/>
<!-- Sequence -->
<g id="node1" class="node">
<title>Sequence</title>
<polygon fill="orange" stroke="black" points="247.38,-468 185.38,-468 185.38,-432 247.38,-432 247.38,-468"/>
<text text-anchor="middle" x="216.38" y="-447.8" font-family="Times,serif" font-size="9.00">Sequence</text>
</g>
<!-- Fallback -->
<g id="node2" class="node">
<title>Fallback</title>
<polygon fill="cyan" stroke="black" points="193.38,-370.54 193.38,-385.46 172.88,-396 143.89,-396 123.39,-385.46 123.39,-370.54 143.89,-360 172.88,-360 193.38,-370.54"/>
<text text-anchor="middle" x="158.38" y="-375.8" font-family="Times,serif" font-size="9.00">Fallback</text>
</g>
<!-- Sequence&#45;&gt;Fallback -->
<g id="edge1" class="edge">
<title>Sequence&#45;&gt;Fallback</title>
<path fill="none" stroke="black" d="M202.05,-431.7C195.09,-423.3 186.61,-413.07 178.98,-403.86"/>
<polygon fill="black" stroke="black" points="181.63,-401.57 172.56,-396.1 176.24,-406.04 181.63,-401.57"/>
</g>
<!-- Fallback  -->
<g id="node5" class="node">
<title>Fallback </title>
<polygon fill="cyan" stroke="black" points="311.13,-370.54 311.13,-385.46 289.6,-396 259.17,-396 237.64,-385.46 237.64,-370.54 259.17,-360 289.6,-360 311.13,-370.54"/>
<text text-anchor="middle" x="274.38" y="-375.8" font-family="Times,serif" font-size="9.00">Fallback </text>
</g>
<!-- Sequence&#45;&gt;Fallback  -->
<g id="edge4" class="edge">
<title>Sequence&#45;&gt;Fallback </title>
<path fill="none" stroke="black" d="M230.72,-431.7C237.67,-423.3 246.15,-413.07 253.78,-403.86"/>
<polygon fill="black" stroke="black" points="256.53,-406.04 260.21,-396.1 251.14,-401.57 256.53,-406.04"/>
</g>
<!-- Battery &gt; 20%? -->
<g id="node3" class="node">
<title>Battery &gt; 20%?</title>
<ellipse fill="lightgray" stroke="black" cx="51.38" cy="-306" rx="51.27" ry="18"/>
<text text-anchor="middle" x="51.38" y="-303.8" font-family="Times,serif" font-size="9.00">Battery &gt; 20%?</text>
</g>
<!-- Fallback&#45;&gt;Battery &gt; 20%? -->
<g id="edge2" class="edge">
<title>Fallback&#45;&gt;Battery &gt; 20%?</title>
<path fill="none" stroke="black" d="M137.24,-363.17C121.89,-353.13 100.85,-339.36 83.43,-327.97"/>
<polygon fill="black" stroke="black" points="84.99,-324.8 74.71,-322.26 81.16,-330.66 84.99,-324.8"/>
</g>
<!-- Recharge! -->
<g id="node4" class="node">
<title>Recharge!</title>
<ellipse fill="lightgray" stroke="black" cx="158.38" cy="-306" rx="37.56" ry="18"/>
<text text-anchor="middle" x="158.38" y="-303.8" font-family="Times,serif" font-size="9.00">Recharge!</text>
</g>
<!-- Fallback&#45;&gt;Recharge! -->
<g id="edge3" class="edge">
<title>Fallback&#45;&gt;Recharge!</title>
<path fill="none" stroke="black" d="M158.38,-359.7C158.38,-351.98 158.38,-342.71 158.38,-334.11"/>
<polygon fill="black" stroke="black" points="161.88,-334.1 158.38,-324.1 154.88,-334.1 161.88,-334.1"/>
</g>
<!-- Cube2 in delivery? -->
<g id="node6" class="node">
<title>Cube2 in delivery?</title>
<ellipse fill="lightgray" stroke="black" cx="274.38" cy="-306" rx="60.09" ry="18"/>
<text text-anchor="middle" x="274.38" y="-303.8" font-family="Times,serif" font-size="9.00">Cube2 in delivery?</text>
</g>
<!-- Fallback &#45;&gt;Cube2 in delivery? -->
<g id="edge5" class="edge">
<title>Fallback &#45;&gt;Cube2 in delivery?</title>
<path fill="none" stroke="black" d="M274.38,-359.7C274.38,-351.98 274.38,-342.71 274.38,-334.11"/>
<polygon fill="black" stroke="black" points="277.88,-334.1 274.38,-324.1 270.88,-334.1 277.88,-334.1"/>
</g>
<!-- Sequence  -->
<g id="node7" class="node">
<title>Sequence </title>
<polygon fill="orange" stroke="black" points="417.88,-324 352.88,-324 352.88,-288 417.88,-288 417.88,-324"/>
<text text-anchor="middle" x="385.38" y="-303.8" font-family="Times,serif" font-size="9.00">Sequence </text>
</g>
<!-- Fallback &#45;&gt;Sequence  -->
<g id="edge6" class="edge">
<title>Fallback &#45;&gt;Sequence </title>
<path fill="none" stroke="black" d="M296.31,-363.17C311.49,-353.6 332.02,-340.65 349.55,-329.6"/>
<polygon fill="black" stroke="black" points="351.81,-332.31 358.4,-324.02 348.07,-326.39 351.81,-332.31"/>
</g>
<!-- Fallback &#160; -->
<g id="node8" class="node">
<title>Fallback &#160;</title>
<polygon fill="cyan" stroke="black" points="313.38,-226.54 313.38,-241.46 290.54,-252 258.23,-252 235.39,-241.46 235.39,-226.54 258.23,-216 290.54,-216 313.38,-226.54"/>
<text text-anchor="middle" x="274.38" y="-231.8" font-family="Times,serif" font-size="9.00">Fallback &#160;</text>
</g>
<!-- Sequence &#45;&gt;Fallback &#160; -->
<g id="edge7" class="edge">
<title>Sequence &#45;&gt;Fallback &#160;</title>
<path fill="none" stroke="black" d="M358.23,-287.88C342.31,-277.84 322.13,-265.11 305.56,-254.66"/>
<polygon fill="black" stroke="black" points="307.1,-251.5 296.78,-249.12 303.37,-257.42 307.1,-251.5"/>
</g>
<!-- Fallback &#160;&#160;&#160; -->
<g id="node15" class="node">
<title>Fallback &#160;&#160;&#160;</title>
<polygon fill="cyan" stroke="black" points="427.87,-226.54 427.87,-241.46 402.98,-252 367.78,-252 342.9,-241.46 342.9,-226.54 367.78,-216 402.98,-216 427.87,-226.54"/>
<text text-anchor="middle" x="385.38" y="-231.8" font-family="Times,serif" font-size="9.00">Fallback &#160;&#160;&#160;</text>
</g>
<!-- Sequence &#45;&gt;Fallback &#160;&#160;&#160; -->
<g id="edge14" class="edge">
<title>Sequence &#45;&gt;Fallback &#160;&#160;&#160;</title>
<path fill="none" stroke="black" d="M385.38,-287.7C385.38,-279.98 385.38,-270.71 385.38,-262.11"/>
<polygon fill="black" stroke="black" points="388.88,-262.1 385.38,-252.1 381.88,-262.1 388.88,-262.1"/>
</g>
<!-- Place cube2! -->
<g id="node18" class="node">
<title>Place cube2!</title>
<ellipse fill="lightgray" stroke="black" cx="490.38" cy="-234" rx="44.41" ry="18"/>
<text text-anchor="middle" x="490.38" y="-231.8" font-family="Times,serif" font-size="9.00">Place cube2!</text>
</g>
<!-- Sequence &#45;&gt;Place cube2! -->
<g id="edge17" class="edge">
<title>Sequence &#45;&gt;Place cube2!</title>
<path fill="none" stroke="black" d="M411.07,-287.88C425.69,-278.13 444.09,-265.86 459.5,-255.59"/>
<polygon fill="black" stroke="black" points="461.79,-258.27 468.16,-249.81 457.9,-252.45 461.79,-258.27"/>
</g>
<!-- Cube2 in Hand? -->
<g id="node9" class="node">
<title>Cube2 in Hand?</title>
<ellipse fill="lightgray" stroke="black" cx="169.38" cy="-162" rx="52.58" ry="18"/>
<text text-anchor="middle" x="169.38" y="-159.8" font-family="Times,serif" font-size="9.00">Cube2 in Hand?</text>
</g>
<!-- Fallback &#160;&#45;&gt;Cube2 in Hand? -->
<g id="edge8" class="edge">
<title>Fallback &#160;&#45;&gt;Cube2 in Hand?</title>
<path fill="none" stroke="black" d="M252.63,-218.5C237.69,-208.54 217.63,-195.16 200.94,-184.04"/>
<polygon fill="black" stroke="black" points="202.83,-181.09 192.57,-178.46 198.95,-186.92 202.83,-181.09"/>
</g>
<!-- Sequence &#160; -->
<g id="node10" class="node">
<title>Sequence &#160;</title>
<polygon fill="orange" stroke="black" points="308.38,-180 240.38,-180 240.38,-144 308.38,-144 308.38,-180"/>
<text text-anchor="middle" x="274.38" y="-159.8" font-family="Times,serif" font-size="9.00">Sequence &#160;</text>
</g>
<!-- Fallback &#160;&#45;&gt;Sequence &#160; -->
<g id="edge9" class="edge">
<title>Fallback &#160;&#45;&gt;Sequence &#160;</title>
<path fill="none" stroke="black" d="M274.38,-215.7C274.38,-207.98 274.38,-198.71 274.38,-190.11"/>
<polygon fill="black" stroke="black" points="277.88,-190.1 274.38,-180.1 270.88,-190.1 277.88,-190.1"/>
</g>
<!-- Fallback &#160;&#160; -->
<g id="node11" class="node">
<title>Fallback &#160;&#160;</title>
<polygon fill="cyan" stroke="black" points="265.12,-82.54 265.12,-97.46 241.26,-108 207.51,-108 183.64,-97.46 183.64,-82.54 207.51,-72 241.26,-72 265.12,-82.54"/>
<text text-anchor="middle" x="224.38" y="-87.8" font-family="Times,serif" font-size="9.00">Fallback &#160;&#160;</text>
</g>
<!-- Sequence &#160;&#45;&gt;Fallback &#160;&#160; -->
<g id="edge10" class="edge">
<title>Sequence &#160;&#45;&gt;Fallback &#160;&#160;</title>
<path fill="none" stroke="black" d="M262.02,-143.7C256.15,-135.47 249.02,-125.48 242.54,-116.42"/>
<polygon fill="black" stroke="black" points="245.26,-114.21 236.6,-108.1 239.57,-118.28 245.26,-114.21"/>
</g>
<!-- Pick cube2! -->
<g id="node14" class="node">
<title>Pick cube2!</title>
<ellipse fill="lightgray" stroke="black" cx="324.38" cy="-90" rx="40.98" ry="18"/>
<text text-anchor="middle" x="324.38" y="-87.8" font-family="Times,serif" font-size="9.00">Pick cube2!</text>
</g>
<!-- Sequence &#160;&#45;&gt;Pick cube2! -->
<g id="edge13" class="edge">
<title>Sequence &#160;&#45;&gt;Pick cube2!</title>
<path fill="none" stroke="black" d="M286.74,-143.7C292.7,-135.35 299.97,-125.18 306.52,-116.02"/>
<polygon fill="black" stroke="black" points="309.55,-117.79 312.51,-107.62 303.85,-113.73 309.55,-117.79"/>
</g>
<!-- Robot&#45;At cube2? -->
<g id="node12" class="node">
<title>Robot&#45;At cube2?</title>
<ellipse fill="lightgray" stroke="black" cx="162.38" cy="-18" rx="53.89" ry="18"/>
<text text-anchor="middle" x="162.38" y="-15.8" font-family="Times,serif" font-size="9.00">Robot&#45;At cube2?</text>
</g>
<!-- Fallback &#160;&#160;&#45;&gt;Robot&#45;At cube2? -->
<g id="edge11" class="edge">
<title>Fallback &#160;&#160;&#45;&gt;Robot&#45;At cube2?</title>
<path fill="none" stroke="black" d="M209.06,-71.7C201.44,-63.09 192.1,-52.55 183.79,-43.17"/>
<polygon fill="black" stroke="black" points="186.36,-40.79 177.11,-35.62 181.12,-45.43 186.36,-40.79"/>
</g>
<!-- Move&#45;To cube2! -->
<g id="node13" class="node">
<title>Move&#45;To cube2!</title>
<ellipse fill="lightgray" stroke="black" cx="286.38" cy="-18" rx="51.92" ry="18"/>
<text text-anchor="middle" x="286.38" y="-15.8" font-family="Times,serif" font-size="9.00">Move&#45;To cube2!</text>
</g>
<!-- Fallback &#160;&#160;&#45;&gt;Move&#45;To cube2! -->
<g id="edge12" class="edge">
<title>Fallback &#160;&#160;&#45;&gt;Move&#45;To cube2!</title>
<path fill="none" stroke="black" d="M239.71,-71.7C247.33,-63.09 256.66,-52.55 264.98,-43.17"/>
<polygon fill="black" stroke="black" points="267.65,-45.43 271.66,-35.62 262.41,-40.79 267.65,-45.43"/>
</g>
<!-- Robot&#45;At delivery? -->
<g id="node16" class="node">
<title>Robot&#45;At delivery?</title>
<ellipse fill="lightgray" stroke="black" cx="385.38" cy="-162" rx="58.78" ry="18"/>
<text text-anchor="middle" x="385.38" y="-159.8" font-family="Times,serif" font-size="9.00">Robot&#45;At delivery?</text>
</g>
<!-- Fallback &#160;&#160;&#160;&#45;&gt;Robot&#45;At delivery? -->
<g id="edge15" class="edge">
<title>Fallback &#160;&#160;&#160;&#45;&gt;Robot&#45;At delivery?</title>
<path fill="none" stroke="black" d="M385.38,-215.7C385.38,-207.98 385.38,-198.71 385.38,-190.11"/>
<polygon fill="black" stroke="black" points="388.88,-190.1 385.38,-180.1 381.88,-190.1 388.88,-190.1"/>
</g>
<!-- Move&#45;To delivery! -->
<g id="node17" class="node">
<title>Move&#45;To delivery!</title>
<ellipse fill="lightgray" stroke="black" cx="519.38" cy="-162" rx="57.32" ry="18"/>
<text text-anchor="middle" x="519.38" y="-159.8" font-family="Times,serif" font-size="9.00">Move&#45;To delivery!</text>
</g>
<!-- Fallback &#160;&#160;&#160;&#45;&gt;Move&#45;To delivery! -->
<g id="edge16" class="edge">
<title>Fallback &#160;&#160;&#160;&#45;&gt;Move&#45;To delivery!</title>
<path fill="none" stroke="black" d="M411.54,-219.34C431.62,-208.85 459.62,-194.22 482.06,-182.5"/>
<polygon fill="black" stroke="black" points="483.74,-185.57 490.98,-177.84 480.49,-179.37 483.74,-185.57"/>
</g>
</g>
</svg>
