<?xml version="1.0" encoding="UTF-8" standalone="no"?>
<!DOCTYPE svg PUBLIC "-//W3C//DTD SVG 1.1//EN"
 "http://www.w3.org/Graphics/SVG/1.1/DTD/svg11.dtd">
<!-- Generated by graphviz version 2.43.0 (0)
 -->
<!-- Title: G Pages: 1 -->
<svg width="432pt" height="872pt"
 viewBox="0.00 0.00 432.39 872.00" xmlns="http://www.w3.org/2000/svg" xmlns:xlink="http://www.w3.org/1999/xlink">
<g id="graph0" class="graph" transform="scale(1 1) rotate(0) translate(4 868)">
<title>G</title>
<polygon fill="white" stroke="transparent" points="-4,4 -4,-868 428.39,-868 428.39,4 -4,4"/>
<g id="clust1" class="cluster">
<title>cluster_/SM_ROOT</title>
<polygon fill="none" stroke="transparent" points="8,-8 8,-856 414,-856 414,-8 8,-8"/>
</g>
<g id="clust2" class="cluster">
<title>cluster_/SM_ROOT/__outcomes__</title>
<path fill="#ffffff" stroke="#ffffff" d="M114,-16C114,-16 184,-16 184,-16 190,-16 196,-22 196,-28 196,-28 196,-42 196,-42 196,-48 190,-54 184,-54 184,-54 114,-54 114,-54 108,-54 102,-48 102,-42 102,-42 102,-28 102,-28 102,-22 108,-16 114,-16"/>
</g>
<!-- /SM_ROOT/__proxy__ -->
<g id="node1" class="node">
<title>/SM_ROOT/__proxy__</title>
<g id="a_node1"><a xlink:href="/SM_ROOT" xlink:title="SM_ROOT">
<text text-anchor="middle" x="298" y="-829.6" font-family="Times,serif" font-size="18.00">SM_ROOT</text>
</a>
</g>
</g>
<!-- /SM_ROOT/Move&#45;To cube2 -->
<g id="node3" class="node">
<title>/SM_ROOT/Move&#45;To cube2</title>
<g id="a_node3"><a xlink:href="/SM_ROOT/Move-To cube2" xlink:title="Move&#45;To cube2">
<ellipse fill="#ffffff" stroke="#000000" stroke-width="2" cx="298" cy="-748" rx="80.69" ry="18"/>
<text text-anchor="middle" x="298" y="-744.3" font-family="Times,serif" font-size="14.00">Move&#45;To cube2</text>
</a>
</g>
</g>
<!-- /SM_ROOT/__proxy__&#45;&gt;/SM_ROOT/Move&#45;To cube2 -->
<g id="edge32" class="edge">
<title>/SM_ROOT/__proxy__&#45;&gt;/SM_ROOT/Move&#45;To cube2</title>
<g id="a_edge32"><a xlink:href="/SM_ROOT/__proxy__::/SM_ROOT/Move-To cube2">
<path fill="none" stroke="black" stroke-width="2" d="M298,-819.88C298,-808.22 298,-790.8 298,-776.16"/>
<polygon fill="black" stroke="black" stroke-width="2" points="301.5,-776.1 298,-766.1 294.5,-776.1 301.5,-776.1"/>
</a>
</g>
</g>
<!-- /SM_ROOT:SUCCESS -->
<g id="node2" class="node">
<title>/SM_ROOT:SUCCESS</title>
<g id="a_node2"><a xlink:href="/SM_ROOT:SUCCESS" xlink:title="SUCCESS">
<path fill="#2ecc71" stroke="#1e8449" d="M180.67,-46C180.67,-46 117.33,-46 117.33,-46 113.67,-46 110,-42.33 110,-38.67 110,-38.67 110,-31.33 110,-31.33 110,-27.67 113.67,-24 117.33,-24 117.33,-24 180.67,-24 180.67,-24 184.33,-24 188,-27.67 188,-31.33 188,-31.33 188,-38.67 188,-38.67 188,-42.33 184.33,-46 180.67,-46"/>
<text text-anchor="middle" x="149" y="-31.9" font-family="Times,serif" font-size="12.00" fill="#1e8449">SUCCESS</text>
</a>
</g>
</g>
<!-- /SM_ROOT/Move&#45;To cube2&#45;&gt;/SM_ROOT/Move&#45;To cube2 -->
<g id="edge2" class="edge">
<title>/SM_ROOT/Move&#45;To cube2&#45;&gt;/SM_ROOT/Move&#45;To cube2</title>
<g id="a_edge2"><a xlink:href="/SM_ROOT/Move-To cube2:RUNNING:/SM_ROOT/Move-To cube2">
<path fill="none" stroke="black" stroke-width="2" d="M346.21,-762.43C380.52,-767.05 414.59,-762.24 414.59,-748 414.59,-735.15 386.85,-729.98 356.22,-732.49"/>
<polygon fill="black" stroke="black" stroke-width="2" points="355.78,-729.02 346.21,-733.57 356.53,-735.97 355.78,-729.02"/>
</a>
</g>
<g id="a_edge2&#45;label"><a xlink:href="/SM_ROOT/Move-To cube2:RUNNING:/SM_ROOT/Move-To cube2">
<text text-anchor="middle" x="362.81" y="-764.64" font-family="Times,serif" font-size="6.00">RUNNING</text>
</a>
</g>
</g>
<!-- /SM_ROOT/Pick cube2 -->
<g id="node4" class="node">
<title>/SM_ROOT/Pick cube2</title>
<g id="a_node4"><a xlink:href="/SM_ROOT/Pick cube2" xlink:title="Pick cube2">
<ellipse fill="#ffffff" stroke="#000000" stroke-width="2" cx="289" cy="-658" rx="61.19" ry="18"/>
<text text-anchor="middle" x="289" y="-654.3" font-family="Times,serif" font-size="14.00">Pick cube2</text>
</a>
</g>
</g>
<!-- /SM_ROOT/Move&#45;To cube2&#45;&gt;/SM_ROOT/Pick cube2 -->
<g id="edge1" class="edge">
<title>/SM_ROOT/Move&#45;To cube2&#45;&gt;/SM_ROOT/Pick cube2</title>
<g id="a_edge1"><a xlink:href="/SM_ROOT/Move-To cube2:Cube2 reached:/SM_ROOT/Pick cube2">
<path fill="none" stroke="black" stroke-width="2" d="M296.22,-729.61C294.96,-717.24 293.23,-700.37 291.78,-686.22"/>
<polygon fill="black" stroke="black" stroke-width="2" points="295.24,-685.64 290.74,-676.05 288.28,-686.35 295.24,-685.64"/>
</a>
</g>
<g id="a_edge1&#45;label"><a xlink:href="/SM_ROOT/Move-To cube2:Cube2 reached:/SM_ROOT/Pick cube2">
<text text-anchor="middle" x="269.95" y="-704.75" font-family="Times,serif" font-size="6.00">Cube2 reached</text>
</a>
</g>
</g>
<!-- /SM_ROOT/Recharge! -->
<g id="node8" class="node">
<title>/SM_ROOT/Recharge!</title>
<g id="a_node8"><a xlink:href="/SM_ROOT/Recharge!" xlink:title="Recharge!">
<ellipse fill="#ffffff" stroke="#000000" stroke-width="2" cx="216" cy="-298" rx="58.49" ry="18"/>
<text text-anchor="middle" x="216" y="-294.3" font-family="Times,serif" font-size="14.00">Recharge!</text>
</a>
</g>
</g>
<!-- /SM_ROOT/Move&#45;To cube2&#45;&gt;/SM_ROOT/Recharge! -->
<g id="edge4" class="edge">
<title>/SM_ROOT/Move&#45;To cube2&#45;&gt;/SM_ROOT/Recharge!</title>
<g id="a_edge4"><a xlink:href="/SM_ROOT/Move-To cube2:Battery below 20%:/SM_ROOT/Recharge!">
<path fill="none" stroke="black" stroke-width="2" d="M262.89,-731.59C214.45,-708.15 129.13,-658.47 94,-586 87.02,-571.6 85.92,-563.81 94,-550 118.71,-507.74 162.57,-536.55 190,-496 225.14,-444.07 223.49,-366.57 219.57,-325.99"/>
<polygon fill="black" stroke="black" stroke-width="2" points="223.05,-325.61 218.5,-316.04 216.09,-326.36 223.05,-325.61"/>
</a>
</g>
<g id="a_edge4&#45;label"><a xlink:href="/SM_ROOT/Move-To cube2:Battery below 20%:/SM_ROOT/Recharge!">
<text text-anchor="middle" x="222.52" y="-495.13" font-family="Times,serif" font-size="6.00">Battery below 20%</text>
</a>
</g>
</g>
<!-- /SM_ROOT/IDLE -->
<g id="node9" class="node">
<title>/SM_ROOT/IDLE</title>
<g id="a_node9"><a xlink:href="/SM_ROOT/IDLE" xlink:title="IDLE">
<ellipse fill="#ffffff" stroke="#000000" stroke-width="2" cx="216" cy="-208" rx="34.39" ry="18"/>
<text text-anchor="middle" x="216" y="-204.3" font-family="Times,serif" font-size="14.00">IDLE</text>
</a>
</g>
</g>
<!-- /SM_ROOT/Move&#45;To cube2&#45;&gt;/SM_ROOT/IDLE -->
<g id="edge3" class="edge">
<title>/SM_ROOT/Move&#45;To cube2&#45;&gt;/SM_ROOT/IDLE</title>
<g id="a_edge3"><a xlink:href="/SM_ROOT/Move-To cube2:FAILURE:/SM_ROOT/IDLE">
<path fill="none" stroke="black" stroke-width="2" d="M313.26,-730.25C330.08,-717.86 354.32,-699.15 368,-676 392.58,-634.42 387,-617.3 387,-569 387,-569 387,-569 387,-387 387,-333.12 368.02,-318.18 330,-280 306.06,-255.97 272.28,-238 247.26,-226.15"/>
<polygon fill="black" stroke="black" stroke-width="2" points="248.68,-222.96 238.14,-221.91 245.73,-229.3 248.68,-222.96"/>
</a>
</g>
<g id="a_edge3&#45;label"><a xlink:href="/SM_ROOT/Move-To cube2:FAILURE:/SM_ROOT/IDLE">
<text text-anchor="middle" x="373" y="-389.2" font-family="Times,serif" font-size="6.00">FAILURE</text>
</a>
</g>
</g>
<!-- /SM_ROOT/Pick cube2&#45;&gt;/SM_ROOT/Pick cube2 -->
<g id="edge6" class="edge">
<title>/SM_ROOT/Pick cube2&#45;&gt;/SM_ROOT/Pick cube2</title>
<g id="a_edge6"><a xlink:href="/SM_ROOT/Pick cube2:RUNNING:/SM_ROOT/Pick cube2">
<path fill="none" stroke="black" stroke-width="2" d="M325.61,-672.45C355.33,-678.33 386.09,-673.51 386.09,-658 386.09,-644.24 361.9,-638.9 335.7,-641.96"/>
<polygon fill="black" stroke="black" stroke-width="2" points="334.94,-638.54 325.61,-643.55 336.03,-645.45 334.94,-638.54"/>
</a>
</g>
<g id="a_edge6&#45;label"><a xlink:href="/SM_ROOT/Pick cube2:RUNNING:/SM_ROOT/Pick cube2">
<text text-anchor="middle" x="342.15" y="-674.66" font-family="Times,serif" font-size="6.00">RUNNING</text>
</a>
</g>
</g>
<!-- /SM_ROOT/Move&#45;To delivery -->
<g id="node5" class="node">
<title>/SM_ROOT/Move&#45;To delivery</title>
<g id="a_node5"><a xlink:href="/SM_ROOT/Move-To delivery" xlink:title="Move&#45;To delivery">
<ellipse fill="#ffffff" stroke="#000000" stroke-width="2" cx="222" cy="-568" rx="90.18" ry="18"/>
<text text-anchor="middle" x="222" y="-564.3" font-family="Times,serif" font-size="14.00">Move&#45;To delivery</text>
</a>
</g>
</g>
<!-- /SM_ROOT/Pick cube2&#45;&gt;/SM_ROOT/Move&#45;To delivery -->
<g id="edge5" class="edge">
<title>/SM_ROOT/Pick cube2&#45;&gt;/SM_ROOT/Move&#45;To delivery</title>
<g id="a_edge5"><a xlink:href="/SM_ROOT/Pick cube2:Cube2 in Hand:/SM_ROOT/Move-To delivery">
<path fill="none" stroke="black" stroke-width="2" d="M276.08,-640.03C266.16,-627.01 252.32,-608.82 241.12,-594.11"/>
<polygon fill="black" stroke="black" stroke-width="2" points="243.72,-591.75 234.88,-585.92 238.15,-595.99 243.72,-591.75"/>
</a>
</g>
<g id="a_edge5&#45;label"><a xlink:href="/SM_ROOT/Pick cube2:Cube2 in Hand:/SM_ROOT/Move-To delivery">
<text text-anchor="middle" x="231.85" y="-615" font-family="Times,serif" font-size="6.00">Cube2 in Hand</text>
</a>
</g>
</g>
<!-- /SM_ROOT/Pick cube2&#45;&gt;/SM_ROOT/Recharge! -->
<g id="edge8" class="edge">
<title>/SM_ROOT/Pick cube2&#45;&gt;/SM_ROOT/Recharge!</title>
<g id="a_edge8"><a xlink:href="/SM_ROOT/Pick cube2:Battery below 20%:/SM_ROOT/Recharge!">
<path fill="none" stroke="black" stroke-width="2" d="M232.96,-650.61C192.45,-642.73 140.37,-625.16 114,-586 64.39,-512.34 212.79,-508.7 221,-496 254.83,-443.67 237.99,-366.08 225.46,-325.66"/>
<polygon fill="black" stroke="black" stroke-width="2" points="228.73,-324.42 222.32,-315.99 222.08,-326.59 228.73,-324.42"/>
</a>
</g>
<g id="a_edge8&#45;label"><a xlink:href="/SM_ROOT/Pick cube2:Battery below 20%:/SM_ROOT/Recharge!">
<text text-anchor="middle" x="197.37" y="-485.83" font-family="Times,serif" font-size="6.00">Battery below 20%</text>
</a>
</g>
</g>
<!-- /SM_ROOT/Pick cube2&#45;&gt;/SM_ROOT/IDLE -->
<g id="edge7" class="edge">
<title>/SM_ROOT/Pick cube2&#45;&gt;/SM_ROOT/IDLE</title>
<g id="a_edge7"><a xlink:href="/SM_ROOT/Pick cube2:FAILURE:/SM_ROOT/IDLE">
<path fill="none" stroke="black" stroke-width="2" d="M292.84,-639.86C303.07,-626.51 320.35,-606.79 330,-586 350.33,-542.19 349,-527.3 349,-479 349,-479 349,-479 349,-387 349,-336.07 340.09,-319.54 308,-280 290.24,-258.11 263.87,-240.77 243.45,-228.71"/>
<polygon fill="black" stroke="black" stroke-width="2" points="244.95,-225.53 234.54,-223.54 241.43,-231.58 244.95,-225.53"/>
</a>
</g>
<g id="a_edge7&#45;label"><a xlink:href="/SM_ROOT/Pick cube2:FAILURE:/SM_ROOT/IDLE">
<text text-anchor="middle" x="335" y="-389.2" font-family="Times,serif" font-size="6.00">FAILURE</text>
</a>
</g>
</g>
<!-- /SM_ROOT/Move&#45;To delivery&#45;&gt;/SM_ROOT/Move&#45;To delivery -->
<g id="edge10" class="edge">
<title>/SM_ROOT/Move&#45;To delivery&#45;&gt;/SM_ROOT/Move&#45;To delivery</title>
<g id="a_edge10"><a xlink:href="/SM_ROOT/Move-To delivery:RUNNING:/SM_ROOT/Move-To delivery">
<path fill="none" stroke="black" stroke-width="2" d="M272.92,-582.93C310.54,-588.05 348.34,-583.07 348.34,-568 348.34,-554.28 317.03,-548.93 283.04,-551.94"/>
<polygon fill="black" stroke="black" stroke-width="2" points="282.47,-548.48 272.92,-553.07 283.25,-555.44 282.47,-548.48"/>
</a>
</g>
<g id="a_edge10&#45;label"><a xlink:href="/SM_ROOT/Move-To delivery:RUNNING:/SM_ROOT/Move-To delivery">
<text text-anchor="middle" x="256.53" y="-585.14" font-family="Times,serif" font-size="6.00">RUNNING</text>
</a>
</g>
</g>
<!-- /SM_ROOT/Place cube2 -->
<g id="node6" class="node">
<title>/SM_ROOT/Place cube2</title>
<g id="a_node6"><a xlink:href="/SM_ROOT/Place cube2" xlink:title="Place cube2">
<ellipse fill="#ffffff" stroke="#000000" stroke-width="2" cx="88" cy="-478" rx="66.09" ry="18"/>
<text text-anchor="middle" x="88" y="-474.3" font-family="Times,serif" font-size="14.00">Place cube2</text>
</a>
</g>
</g>
<!-- /SM_ROOT/Move&#45;To delivery&#45;&gt;/SM_ROOT/Place cube2 -->
<g id="edge9" class="edge">
<title>/SM_ROOT/Move&#45;To delivery&#45;&gt;/SM_ROOT/Place cube2</title>
<g id="a_edge9"><a xlink:href="/SM_ROOT/Move-To delivery:Delivery pose reached:/SM_ROOT/Place cube2">
<path fill="none" stroke="black" stroke-width="2" d="M197.11,-550.65C175.63,-536.55 144.45,-516.07 120.91,-500.62"/>
<polygon fill="black" stroke="black" stroke-width="2" points="122.59,-497.53 112.31,-494.96 118.74,-503.38 122.59,-497.53"/>
</a>
</g>
<g id="a_edge9&#45;label"><a xlink:href="/SM_ROOT/Move-To delivery:Delivery pose reached:/SM_ROOT/Place cube2">
<text text-anchor="middle" x="118.93" y="-524.82" font-family="Times,serif" font-size="6.00">Delivery pose reached</text>
</a>
</g>
</g>
<!-- /SM_ROOT/Move&#45;To delivery&#45;&gt;/SM_ROOT/Recharge! -->
<g id="edge12" class="edge">
<title>/SM_ROOT/Move&#45;To delivery&#45;&gt;/SM_ROOT/Recharge!</title>
<g id="a_edge12"><a xlink:href="/SM_ROOT/Move-To delivery:Battery below 20%:/SM_ROOT/Recharge!">
<path fill="none" stroke="black" stroke-width="2" d="M234.84,-549.99C244.39,-536.24 256.65,-515.95 262,-496 276.51,-441.91 279.14,-423.63 263,-370 257.9,-353.05 247.28,-336.42 237.43,-323.52"/>
<polygon fill="black" stroke="black" stroke-width="2" points="240.1,-321.25 231.13,-315.61 234.63,-325.62 240.1,-321.25"/>
</a>
</g>
<g id="a_edge12&#45;label"><a xlink:href="/SM_ROOT/Move-To delivery:Battery below 20%:/SM_ROOT/Recharge!">
<text text-anchor="middle" x="243.44" y="-436.72" font-family="Times,serif" font-size="6.00">Battery below 20%</text>
</a>
</g>
</g>
<!-- /SM_ROOT/Move&#45;To delivery&#45;&gt;/SM_ROOT/IDLE -->
<g id="edge11" class="edge">
<title>/SM_ROOT/Move&#45;To delivery&#45;&gt;/SM_ROOT/IDLE</title>
<g id="a_edge11"><a xlink:href="/SM_ROOT/Move-To delivery:FAILURE:/SM_ROOT/IDLE">
<path fill="none" stroke="black" stroke-width="2" d="M223.96,-549.82C232.98,-536.29 248.94,-516.38 258,-496 297.49,-407.2 335.31,-367 292,-280 281.13,-258.17 260,-241.28 242.34,-229.45"/>
<polygon fill="black" stroke="black" stroke-width="2" points="243.79,-226.23 233.49,-223.73 239.99,-232.1 243.79,-226.23"/>
</a>
</g>
<g id="a_edge11&#45;label"><a xlink:href="/SM_ROOT/Move-To delivery:FAILURE:/SM_ROOT/IDLE">
<text text-anchor="middle" x="281.91" y="-417.64" font-family="Times,serif" font-size="6.00">FAILURE</text>
</a>
</g>
</g>
<!-- /SM_ROOT/Place cube2&#45;&gt;/SM_ROOT/Place cube2 -->
<g id="edge14" class="edge">
<title>/SM_ROOT/Place cube2&#45;&gt;/SM_ROOT/Place cube2</title>
<g id="a_edge14"><a xlink:href="/SM_ROOT/Place cube2:RUNNING:/SM_ROOT/Place cube2">
<path fill="none" stroke="black" stroke-width="2" d="M127.1,-492.55C158.24,-498.28 190.29,-493.42 190.29,-478 190.29,-464.26 164.87,-458.91 137.31,-461.95"/>
<polygon fill="black" stroke="black" stroke-width="2" points="136.49,-458.53 127.1,-463.45 137.5,-465.46 136.49,-458.53"/>
</a>
</g>
<g id="a_edge14&#45;label"><a xlink:href="/SM_ROOT/Place cube2:RUNNING:/SM_ROOT/Place cube2">
<text text-anchor="middle" x="143.65" y="-494.76" font-family="Times,serif" font-size="6.00">RUNNING</text>
</a>
</g>
</g>
<!-- /SM_ROOT/Dock -->
<g id="node7" class="node">
<title>/SM_ROOT/Dock</title>
<g id="a_node7"><a xlink:href="/SM_ROOT/Dock" xlink:title="Dock">
<ellipse fill="#ffffff" stroke="#000000" stroke-width="2" cx="88" cy="-388" rx="33.6" ry="18"/>
<text text-anchor="middle" x="88" y="-384.3" font-family="Times,serif" font-size="14.00">Dock</text>
</a>
</g>
</g>
<!-- /SM_ROOT/Place cube2&#45;&gt;/SM_ROOT/Dock -->
<g id="edge13" class="edge">
<title>/SM_ROOT/Place cube2&#45;&gt;/SM_ROOT/Dock</title>
<g id="a_edge13"><a xlink:href="/SM_ROOT/Place cube2:Cube2 placed:/SM_ROOT/Dock">
<path fill="none" stroke="black" stroke-width="2" d="M88,-459.61C88,-447.24 88,-430.37 88,-416.22"/>
<polygon fill="black" stroke="black" stroke-width="2" points="91.5,-416.05 88,-406.05 84.5,-416.05 91.5,-416.05"/>
</a>
</g>
<g id="a_edge13&#45;label"><a xlink:href="/SM_ROOT/Place cube2:Cube2 placed:/SM_ROOT/Dock">
<text text-anchor="middle" x="66.5" y="-434.75" font-family="Times,serif" font-size="6.00">Cube2 placed</text>
</a>
</g>
</g>
<!-- /SM_ROOT/Place cube2&#45;&gt;/SM_ROOT/Recharge! -->
<g id="edge16" class="edge">
<title>/SM_ROOT/Place cube2&#45;&gt;/SM_ROOT/Recharge!</title>
<g id="a_edge16"><a xlink:href="/SM_ROOT/Place cube2:Battery below 20%:/SM_ROOT/Recharge!">
<path fill="none" stroke="black" stroke-width="2" d="M107.03,-460.47C122.02,-446.82 142.85,-426.45 158,-406 176.95,-380.41 193.69,-347.87 204.25,-325.43"/>
<polygon fill="black" stroke="black" stroke-width="2" points="207.51,-326.73 208.52,-316.19 201.15,-323.8 207.51,-326.73"/>
</a>
</g>
<g id="a_edge16&#45;label"><a xlink:href="/SM_ROOT/Place cube2:Battery below 20%:/SM_ROOT/Recharge!">
<text text-anchor="middle" x="196.78" y="-396.4" font-family="Times,serif" font-size="6.00">Battery below 20%</text>
</a>
</g>
</g>
<!-- /SM_ROOT/Place cube2&#45;&gt;/SM_ROOT/IDLE -->
<g id="edge15" class="edge">
<title>/SM_ROOT/Place cube2&#45;&gt;/SM_ROOT/IDLE</title>
<g id="a_edge15"><a xlink:href="/SM_ROOT/Place cube2:FAILURE:/SM_ROOT/IDLE">
<path fill="none" stroke="black" stroke-width="2" d="M57.92,-461.77C41.75,-448.41 25.12,-427.78 18,-406 13.03,-390.79 12.6,-385.06 18,-370 44.31,-296.58 127.42,-244.86 177.8,-222.06"/>
<polygon fill="black" stroke="black" stroke-width="2" points="179.33,-225.21 187.11,-218.01 176.54,-218.79 179.33,-225.21"/>
</a>
</g>
<g id="a_edge15&#45;label"><a xlink:href="/SM_ROOT/Place cube2:FAILURE:/SM_ROOT/IDLE">
<text text-anchor="middle" x="61.59" y="-290.78" font-family="Times,serif" font-size="6.00">FAILURE</text>
</a>
</g>
</g>
<!-- /SM_ROOT/Dock&#45;&gt;/SM_ROOT/Dock -->
<g id="edge18" class="edge">
<title>/SM_ROOT/Dock&#45;&gt;/SM_ROOT/Dock</title>
<g id="a_edge18"><a xlink:href="/SM_ROOT/Dock:RUNNING:/SM_ROOT/Dock">
<path fill="none" stroke="black" stroke-width="2" d="M110.88,-401.41C133.23,-408.82 157.8,-404.35 157.8,-388 157.8,-374.02 139.82,-368.72 120.63,-372.12"/>
<polygon fill="black" stroke="black" stroke-width="2" points="119.71,-368.74 110.88,-374.59 121.43,-375.53 119.71,-368.74"/>
</a>
</g>
<g id="a_edge18&#45;label"><a xlink:href="/SM_ROOT/Dock:RUNNING:/SM_ROOT/Dock">
<text text-anchor="middle" x="127.41" y="-403.62" font-family="Times,serif" font-size="6.00">RUNNING</text>
</a>
</g>
</g>
<!-- /SM_ROOT/Dock&#45;&gt;/SM_ROOT/Recharge! -->
<g id="edge20" class="edge">
<title>/SM_ROOT/Dock&#45;&gt;/SM_ROOT/Recharge!</title>
<g id="a_edge20"><a xlink:href="/SM_ROOT/Dock:Battery below 20%:/SM_ROOT/Recharge!">
<path fill="none" stroke="black" stroke-width="2" d="M108,-373.25C128.54,-359.13 160.8,-336.95 184.72,-320.51"/>
<polygon fill="black" stroke="black" stroke-width="2" points="186.86,-323.28 193.12,-314.73 182.89,-317.51 186.86,-323.28"/>
</a>
</g>
<g id="a_edge20&#45;label"><a xlink:href="/SM_ROOT/Dock:Battery below 20%:/SM_ROOT/Recharge!">
<text text-anchor="middle" x="120.04" y="-346.21" font-family="Times,serif" font-size="6.00">Battery below 20%</text>
</a>
</g>
</g>
<!-- /SM_ROOT/Dock&#45;&gt;/SM_ROOT/IDLE -->
<g id="edge19" class="edge">
<title>/SM_ROOT/Dock&#45;&gt;/SM_ROOT/IDLE</title>
<g id="a_edge19"><a xlink:href="/SM_ROOT/Dock:FAILURE:/SM_ROOT/IDLE">
<path fill="none" stroke="black" stroke-width="2" d="M81.67,-370C84.3,-347.95 100.66,-308.91 122,-280 137.79,-258.61 160.55,-238.35 180.47,-224.98"/>
<polygon fill="black" stroke="black" stroke-width="2" points="182.51,-227.83 189.09,-219.52 178.77,-221.91 182.51,-227.83"/>
</a>
</g>
<g id="a_edge19&#45;label"><a xlink:href="/SM_ROOT/Dock:FAILURE:/SM_ROOT/IDLE">
<text text-anchor="middle" x="108.02" y="-282.17" font-family="Times,serif" font-size="6.00">FAILURE</text>
</a>
</g>
</g>
<!-- /SM_ROOT/Success -->
<g id="node10" class="node">
<title>/SM_ROOT/Success</title>
<g id="a_node10"><a xlink:href="/SM_ROOT/Success" xlink:title="Success">
<ellipse fill="#ffffff" stroke="#000000" stroke-width="2" cx="149" cy="-118" rx="48.19" ry="18"/>
<text text-anchor="middle" x="149" y="-114.3" font-family="Times,serif" font-size="14.00">Success</text>
</a>
</g>
</g>
<!-- /SM_ROOT/Dock&#45;&gt;/SM_ROOT/Success -->
<g id="edge17" class="edge">
<title>/SM_ROOT/Dock&#45;&gt;/SM_ROOT/Success</title>
<g id="a_edge17"><a xlink:href="/SM_ROOT/Dock:Dock pose reached:/SM_ROOT/Success">
<path fill="none" stroke="black" stroke-width="2" d="M91.32,-369.91C95.48,-348.76 102.92,-311.65 110,-280 120.55,-232.85 134.05,-178.24 142.09,-146.28"/>
<polygon fill="black" stroke="black" stroke-width="2" points="145.54,-146.9 144.59,-136.35 138.75,-145.19 145.54,-146.9"/>
</a>
</g>
<g id="a_edge17&#45;label"><a xlink:href="/SM_ROOT/Dock:Dock pose reached:/SM_ROOT/Success">
<text text-anchor="middle" x="86.83" y="-254.52" font-family="Times,serif" font-size="6.00">Dock pose reached</text>
</a>
</g>
</g>
<!-- /SM_ROOT/Recharge!&#45;&gt;/SM_ROOT/Recharge! -->
<g id="edge21" class="edge">
<title>/SM_ROOT/Recharge!&#45;&gt;/SM_ROOT/Recharge!</title>
<g id="a_edge21"><a xlink:href="/SM_ROOT/Recharge!:RUNNING:/SM_ROOT/Recharge!">
<path fill="none" stroke="black" stroke-width="2" d="M251.38,-312.4C280.38,-318.36 310.49,-313.56 310.49,-298 310.49,-284.27 287.02,-278.92 261.57,-281.95"/>
<polygon fill="black" stroke="black" stroke-width="2" points="260.69,-278.54 251.38,-283.6 261.81,-285.45 260.69,-278.54"/>
</a>
</g>
<g id="a_edge21&#45;label"><a xlink:href="/SM_ROOT/Recharge!:RUNNING:/SM_ROOT/Recharge!">
<text text-anchor="middle" x="267.92" y="-314.61" font-family="Times,serif" font-size="6.00">RUNNING</text>
</a>
</g>
</g>
<!-- /SM_ROOT/Recharge!&#45;&gt;/SM_ROOT/IDLE -->
<g id="edge22" class="edge">
<title>/SM_ROOT/Recharge!&#45;&gt;/SM_ROOT/IDLE</title>
<g id="a_edge22"><a xlink:href="/SM_ROOT/Recharge!:SUCCESS:/SM_ROOT/IDLE">
<path fill="none" stroke="black" stroke-width="2" d="M205.08,-280.03C202.27,-267.33 201.76,-249.73 203.53,-235.22"/>
<polygon fill="black" stroke="black" stroke-width="2" points="206.99,-235.77 205.23,-225.32 200.09,-234.58 206.99,-235.77"/>
</a>
</g>
<g id="a_edge22&#45;label"><a xlink:href="/SM_ROOT/Recharge!:SUCCESS:/SM_ROOT/IDLE">
<text text-anchor="middle" x="187" y="-254.99" font-family="Times,serif" font-size="6.00">SUCCESS</text>
</a>
</g>
</g>
<!-- /SM_ROOT/IDLE&#45;&gt;/SM_ROOT/Move&#45;To cube2 -->
<g id="edge23" class="edge">
<title>/SM_ROOT/IDLE&#45;&gt;/SM_ROOT/Move&#45;To cube2</title>
<g id="a_edge23"><a xlink:href="/SM_ROOT/IDLE:Restart the task:/SM_ROOT/Move-To cube2">
<path fill="none" stroke="black" stroke-width="2" d="M247.57,-215.45C281.69,-225.43 333.13,-247 366,-280 404.02,-318.18 423,-333.12 423,-387 423,-569 423,-569 423,-569 423,-617.3 428.58,-634.42 404,-676 391.33,-697.44 369.6,-715.07 348.72,-727.4"/>
<polygon fill="black" stroke="black" stroke-width="2" points="346.87,-724.42 339.85,-732.35 350.28,-730.53 346.87,-724.42"/>
</a>
</g>
<g id="a_edge23&#45;label"><a xlink:href="/SM_ROOT/IDLE:Restart the task:/SM_ROOT/Move-To cube2">
<text text-anchor="middle" x="398" y="-494.43" font-family="Times,serif" font-size="6.00">Restart the task</text>
</a>
</g>
</g>
<!-- /SM_ROOT/IDLE&#45;&gt;/SM_ROOT/Pick cube2 -->
<g id="edge24" class="edge">
<title>/SM_ROOT/IDLE&#45;&gt;/SM_ROOT/Pick cube2</title>
<g id="a_edge24"><a xlink:href="/SM_ROOT/IDLE:Cube2 reached:/SM_ROOT/Pick cube2">
<path fill="none" stroke="black" stroke-width="2" d="M246.53,-216.46C276.49,-227.15 318.86,-249.03 344,-280 376.09,-319.54 385,-336.07 385,-387 385,-479 385,-479 385,-479 385,-527.3 386.33,-542.19 366,-586 357.27,-604.82 342.28,-622.76 327.27,-635.9"/>
<polygon fill="black" stroke="black" stroke-width="2" points="324.97,-633.26 319.45,-642.31 329.41,-638.67 324.97,-633.26"/>
</a>
</g>
<g id="a_edge24&#45;label"><a xlink:href="/SM_ROOT/IDLE:Cube2 reached:/SM_ROOT/Pick cube2">
<text text-anchor="middle" x="361.5" y="-442.41" font-family="Times,serif" font-size="6.00">Cube2 reached</text>
</a>
</g>
</g>
<!-- /SM_ROOT/IDLE&#45;&gt;/SM_ROOT/Move&#45;To delivery -->
<g id="edge25" class="edge">
<title>/SM_ROOT/IDLE&#45;&gt;/SM_ROOT/Move&#45;To delivery</title>
<g id="a_edge25"><a xlink:href="/SM_ROOT/IDLE:Cube2 in Hand:/SM_ROOT/Move-To delivery">
<path fill="none" stroke="black" stroke-width="2" d="M246.71,-216.56C274.85,-227.04 312.23,-248.33 328,-280 371.31,-367 333.49,-407.2 294,-496 286.14,-513.67 273.1,-531 259.71,-544.11"/>
<polygon fill="black" stroke="black" stroke-width="2" points="257.28,-541.6 252.27,-550.93 262.01,-546.75 257.28,-541.6"/>
</a>
</g>
<g id="a_edge25&#45;label"><a xlink:href="/SM_ROOT/IDLE:Cube2 in Hand:/SM_ROOT/Move-To delivery">
<text text-anchor="middle" x="353.72" y="-421.54" font-family="Times,serif" font-size="6.00">Cube2 in Hand</text>
</a>
</g>
</g>
<!-- /SM_ROOT/IDLE&#45;&gt;/SM_ROOT/Place cube2 -->
<g id="edge26" class="edge">
<title>/SM_ROOT/IDLE&#45;&gt;/SM_ROOT/Place cube2</title>
<g id="a_edge26"><a xlink:href="/SM_ROOT/IDLE:Delivery pose reached:/SM_ROOT/Place cube2">
<path fill="none" stroke="black" stroke-width="2" d="M197.87,-223.38C160.3,-246.82 79.81,-297.97 54,-370 48.6,-385.06 49.03,-390.79 54,-406 59.46,-422.71 70.52,-438.74 79.41,-451.33"/>
<polygon fill="black" stroke="black" stroke-width="2" points="76.77,-453.67 85.38,-459.85 82.51,-449.65 76.77,-453.67"/>
</a>
</g>
<g id="a_edge26&#45;label"><a xlink:href="/SM_ROOT/IDLE:Delivery pose reached:/SM_ROOT/Place cube2">
<text text-anchor="middle" x="62.67" y="-303.28" font-family="Times,serif" font-size="6.00">Delivery pose reached</text>
</a>
</g>
</g>
<!-- /SM_ROOT/IDLE&#45;&gt;/SM_ROOT/Dock -->
<g id="edge27" class="edge">
<title>/SM_ROOT/IDLE&#45;&gt;/SM_ROOT/Dock</title>
<g id="a_edge27"><a xlink:href="/SM_ROOT/IDLE:Cube2 placed:/SM_ROOT/Dock">
<path fill="none" stroke="black" stroke-width="2" d="M208.75,-225.87C195.56,-239.23 173.44,-259.08 158,-280 138.59,-306.29 123.31,-340.95 110.22,-363.59"/>
<polygon fill="black" stroke="black" stroke-width="2" points="107.18,-361.86 104.93,-372.22 113.15,-365.52 107.18,-361.86"/>
</a>
</g>
<g id="a_edge27&#45;label"><a xlink:href="/SM_ROOT/IDLE:Cube2 placed:/SM_ROOT/Dock">
<text text-anchor="middle" x="127.06" y="-296.06" font-family="Times,serif" font-size="6.00">Cube2 placed</text>
</a>
</g>
</g>
<!-- /SM_ROOT/IDLE&#45;&gt;/SM_ROOT/Recharge! -->
<g id="edge29" class="edge">
<title>/SM_ROOT/IDLE&#45;&gt;/SM_ROOT/Recharge!</title>
<g id="a_edge29"><a xlink:href="/SM_ROOT/IDLE:Battery below 20%:/SM_ROOT/Recharge!">
<path fill="none" stroke="black" stroke-width="2" d="M226.77,-225.32C229.66,-237.85 230.26,-255.42 228.56,-270.03"/>
<polygon fill="black" stroke="black" stroke-width="2" points="225.08,-269.6 226.92,-280.03 231.99,-270.73 225.08,-269.6"/>
</a>
</g>
<g id="a_edge29&#45;label"><a xlink:href="/SM_ROOT/IDLE:Battery below 20%:/SM_ROOT/Recharge!">
<text text-anchor="middle" x="199" y="-247.6" font-family="Times,serif" font-size="6.00">Battery below 20%</text>
</a>
</g>
</g>
<!-- /SM_ROOT/IDLE&#45;&gt;/SM_ROOT/IDLE -->
<g id="edge30" class="edge">
<title>/SM_ROOT/IDLE&#45;&gt;/SM_ROOT/IDLE</title>
<g id="a_edge30"><a xlink:href="/SM_ROOT/IDLE:RUNNING:/SM_ROOT/IDLE">
<path fill="none" stroke="black" stroke-width="2" d="M239.09,-221.41C261.65,-228.82 286.45,-224.35 286.45,-208 286.45,-194.02 268.3,-188.72 248.93,-192.12"/>
<polygon fill="black" stroke="black" stroke-width="2" points="247.94,-188.76 239.09,-194.59 249.64,-195.55 247.94,-188.76"/>
</a>
</g>
<g id="a_edge30&#45;label"><a xlink:href="/SM_ROOT/IDLE:RUNNING:/SM_ROOT/IDLE">
<text text-anchor="middle" x="255.62" y="-223.62" font-family="Times,serif" font-size="6.00">RUNNING</text>
</a>
</g>
</g>
<!-- /SM_ROOT/IDLE&#45;&gt;/SM_ROOT/Success -->
<g id="edge28" class="edge">
<title>/SM_ROOT/IDLE&#45;&gt;/SM_ROOT/Success</title>
<g id="a_edge28"><a xlink:href="/SM_ROOT/IDLE:Dock pose reached:/SM_ROOT/Success">
<path fill="none" stroke="black" stroke-width="2" d="M203.71,-190.86C193.73,-177.75 179.49,-159.04 168.03,-144"/>
<polygon fill="black" stroke="black" stroke-width="2" points="170.51,-141.47 161.67,-135.64 164.94,-145.71 170.51,-141.47"/>
</a>
</g>
<g id="a_edge28&#45;label"><a xlink:href="/SM_ROOT/IDLE:Dock pose reached:/SM_ROOT/Success">
<text text-anchor="middle" x="153.11" y="-165.34" font-family="Times,serif" font-size="6.00">Dock pose reached</text>
</a>
</g>
</g>
<!-- /SM_ROOT/Success&#45;&gt;/SM_ROOT:SUCCESS -->
<g id="edge31" class="edge">
<title>/SM_ROOT/Success&#45;&gt;/SM_ROOT:SUCCESS</title>
<g id="a_edge31"><a xlink:href="/SM_ROOT/Success:SUCCESS:/SM_ROOT/SUCCESS">
<path fill="none" stroke="#000000" stroke-width="2" stroke-opacity="0.333333" d="M149,-99.82C149,-87.05 149,-69.59 149,-56.16"/>
<polygon fill="#000000" fill-opacity="0.333333" stroke="#000000" stroke-width="2" stroke-opacity="0.333333" points="152.5,-56.01 149,-46.01 145.5,-56.01 152.5,-56.01"/>
</a>
</g>
<g id="a_edge31&#45;label"><a xlink:href="/SM_ROOT/Success:SUCCESS:/SM_ROOT/SUCCESS">
<text text-anchor="middle" x="133.5" y="-75.42" font-family="Times,serif" font-size="6.00">SUCCESS</text>
</a>
</g>
</g>
</g>
</svg>
