<?xml version="1.0" encoding="UTF-8" standalone="no"?>
<!DOCTYPE svg PUBLIC "-//W3C//DTD SVG 1.1//EN"
 "http://www.w3.org/Graphics/SVG/1.1/DTD/svg11.dtd">
<!-- Generated by graphviz version 2.43.0 (0)
 -->
<!-- Title: pastafarianism Pages: 1 -->
<svg width="646pt" height="476pt"
 viewBox="0.00 0.00 646.38 476.00" xmlns="http://www.w3.org/2000/svg" xmlns:xlink="http://www.w3.org/1999/xlink">
<g id="graph0" class="graph" transform="scale(1 1) rotate(0) translate(4 472)">
<title>pastafarianism</title>
<polygon fill="white" stroke="transparent" points="-4,4 -4,-472 642.38,-472 642.38,4 -4,4"/>
<!-- Sequence -->
<g id="node1" class="node">
<title>Sequence</title>
<polygon fill="orange" stroke="black" points="360.38,-468 298.38,-468 298.38,-432 360.38,-432 360.38,-468"/>
<text text-anchor="middle" x="329.38" y="-447.8" font-family="Times,serif" font-size="9.00">Sequence</text>
</g>
<!-- Fallback -->
<g id="node2" class="node">
<title>Fallback</title>
<polygon fill="cyan" stroke="black" points="193.38,-370.54 193.38,-385.46 172.88,-396 143.89,-396 123.39,-385.46 123.39,-370.54 143.89,-360 172.88,-360 193.38,-370.54"/>
<text text-anchor="middle" x="158.38" y="-375.8" font-family="Times,serif" font-size="9.00">Fallback</text>
</g>
<!-- Sequence&#45;&gt;Fallback -->
<g id="edge1" class="edge">
<title>Sequence&#45;&gt;Fallback</title>
<path fill="none" stroke="black" d="M298.02,-436.16C268.79,-424.19 225.21,-406.36 194.53,-393.8"/>
<polygon fill="black" stroke="black" points="195.64,-390.47 185.06,-389.92 192.98,-396.95 195.64,-390.47"/>
</g>
<!-- Fallback  -->
<g id="node5" class="node">
<title>Fallback </title>
<polygon fill="cyan" stroke="black" points="366.13,-370.54 366.13,-385.46 344.6,-396 314.17,-396 292.64,-385.46 292.64,-370.54 314.17,-360 344.6,-360 366.13,-370.54"/>
<text text-anchor="middle" x="329.38" y="-375.8" font-family="Times,serif" font-size="9.00">Fallback </text>
</g>
<!-- Sequence&#45;&gt;Fallback  -->
<g id="edge4" class="edge">
<title>Sequence&#45;&gt;Fallback </title>
<path fill="none" stroke="black" d="M329.38,-431.7C329.38,-423.98 329.38,-414.71 329.38,-406.11"/>
<polygon fill="black" stroke="black" points="332.88,-406.1 329.38,-396.1 325.88,-406.1 332.88,-406.1"/>
</g>
<!-- Fallback &#160;&#160;&#160;&#160; -->
<g id="node19" class="node">
<title>Fallback &#160;&#160;&#160;&#160;</title>
<polygon fill="cyan" stroke="black" points="545.62,-370.54 545.62,-385.46 519.71,-396 483.06,-396 457.15,-385.46 457.15,-370.54 483.06,-360 519.71,-360 545.62,-370.54"/>
<text text-anchor="middle" x="501.38" y="-375.8" font-family="Times,serif" font-size="9.00">Fallback &#160;&#160;&#160;&#160;</text>
</g>
<!-- Sequence&#45;&gt;Fallback &#160;&#160;&#160;&#160; -->
<g id="edge18" class="edge">
<title>Sequence&#45;&gt;Fallback &#160;&#160;&#160;&#160;</title>
<path fill="none" stroke="black" d="M360.53,-436.32C388.92,-424.77 431,-407.64 461.77,-395.12"/>
<polygon fill="black" stroke="black" points="463.39,-398.24 471.33,-391.23 460.75,-391.76 463.39,-398.24"/>
</g>
<!-- Battery &gt; 20%? -->
<g id="node3" class="node">
<title>Battery &gt; 20%?</title>
<ellipse fill="lightgray" stroke="black" cx="51.38" cy="-306" rx="51.27" ry="18"/>
<text text-anchor="middle" x="51.38" y="-303.8" font-family="Times,serif" font-size="9.00">Battery &gt; 20%?</text>
</g>
<!-- Fallback&#45;&gt;Battery &gt; 20%? -->
<g id="edge2" class="edge">
<title>Fallback&#45;&gt;Battery &gt; 20%?</title>
<path fill="none" stroke="black" d="M137.24,-363.17C121.89,-353.13 100.85,-339.36 83.43,-327.97"/>
<polygon fill="black" stroke="black" points="84.99,-324.8 74.71,-322.26 81.16,-330.66 84.99,-324.8"/>
</g>
<!-- Recharge! -->
<g id="node4" class="node">
<title>Recharge!</title>
<ellipse fill="lightgray" stroke="black" cx="158.38" cy="-306" rx="37.56" ry="18"/>
<text text-anchor="middle" x="158.38" y="-303.8" font-family="Times,serif" font-size="9.00">Recharge!</text>
</g>
<!-- Fallback&#45;&gt;Recharge! -->
<g id="edge3" class="edge">
<title>Fallback&#45;&gt;Recharge!</title>
<path fill="none" stroke="black" d="M158.38,-359.7C158.38,-351.98 158.38,-342.71 158.38,-334.11"/>
<polygon fill="black" stroke="black" points="161.88,-334.1 158.38,-324.1 154.88,-334.1 161.88,-334.1"/>
</g>
<!-- Cube2 in delivery? -->
<g id="node6" class="node">
<title>Cube2 in delivery?</title>
<ellipse fill="lightgray" stroke="black" cx="274.38" cy="-306" rx="60.09" ry="18"/>
<text text-anchor="middle" x="274.38" y="-303.8" font-family="Times,serif" font-size="9.00">Cube2 in delivery?</text>
</g>
<!-- Fallback &#45;&gt;Cube2 in delivery? -->
<g id="edge5" class="edge">
<title>Fallback &#45;&gt;Cube2 in delivery?</title>
<path fill="none" stroke="black" d="M315.79,-359.7C309.16,-351.27 301.08,-340.97 293.82,-331.73"/>
<polygon fill="black" stroke="black" points="296.37,-329.32 287.44,-323.62 290.87,-333.65 296.37,-329.32"/>
</g>
<!-- Sequence  -->
<g id="node7" class="node">
<title>Sequence </title>
<polygon fill="orange" stroke="black" points="417.88,-324 352.88,-324 352.88,-288 417.88,-288 417.88,-324"/>
<text text-anchor="middle" x="385.38" y="-303.8" font-family="Times,serif" font-size="9.00">Sequence </text>
</g>
<!-- Fallback &#45;&gt;Sequence  -->
<g id="edge6" class="edge">
<title>Fallback &#45;&gt;Sequence </title>
<path fill="none" stroke="black" d="M343.23,-359.7C349.87,-351.39 357.96,-341.28 365.27,-332.14"/>
<polygon fill="black" stroke="black" points="368.19,-334.1 371.7,-324.1 362.72,-329.73 368.19,-334.1"/>
</g>
<!-- Fallback &#160; -->
<g id="node8" class="node">
<title>Fallback &#160;</title>
<polygon fill="cyan" stroke="black" points="313.38,-226.54 313.38,-241.46 290.54,-252 258.23,-252 235.39,-241.46 235.39,-226.54 258.23,-216 290.54,-216 313.38,-226.54"/>
<text text-anchor="middle" x="274.38" y="-231.8" font-family="Times,serif" font-size="9.00">Fallback &#160;</text>
</g>
<!-- Sequence &#45;&gt;Fallback &#160; -->
<g id="edge7" class="edge">
<title>Sequence &#45;&gt;Fallback &#160;</title>
<path fill="none" stroke="black" d="M358.23,-287.88C342.31,-277.84 322.13,-265.11 305.56,-254.66"/>
<polygon fill="black" stroke="black" points="307.1,-251.5 296.78,-249.12 303.37,-257.42 307.1,-251.5"/>
</g>
<!-- Fallback &#160;&#160;&#160; -->
<g id="node15" class="node">
<title>Fallback &#160;&#160;&#160;</title>
<polygon fill="cyan" stroke="black" points="427.87,-226.54 427.87,-241.46 402.98,-252 367.78,-252 342.9,-241.46 342.9,-226.54 367.78,-216 402.98,-216 427.87,-226.54"/>
<text text-anchor="middle" x="385.38" y="-231.8" font-family="Times,serif" font-size="9.00">Fallback &#160;&#160;&#160;</text>
</g>
<!-- Sequence &#45;&gt;Fallback &#160;&#160;&#160; -->
<g id="edge14" class="edge">
<title>Sequence &#45;&gt;Fallback &#160;&#160;&#160;</title>
<path fill="none" stroke="black" d="M385.38,-287.7C385.38,-279.98 385.38,-270.71 385.38,-262.11"/>
<polygon fill="black" stroke="black" points="388.88,-262.1 385.38,-252.1 381.88,-262.1 388.88,-262.1"/>
</g>
<!-- Place cube2! -->
<g id="node18" class="node">
<title>Place cube2!</title>
<ellipse fill="lightgray" stroke="black" cx="490.38" cy="-234" rx="44.41" ry="18"/>
<text text-anchor="middle" x="490.38" y="-231.8" font-family="Times,serif" font-size="9.00">Place cube2!</text>
</g>
<!-- Sequence &#45;&gt;Place cube2! -->
<g id="edge17" class="edge">
<title>Sequence &#45;&gt;Place cube2!</title>
<path fill="none" stroke="black" d="M411.07,-287.88C425.69,-278.13 444.09,-265.86 459.5,-255.59"/>
<polygon fill="black" stroke="black" points="461.79,-258.27 468.16,-249.81 457.9,-252.45 461.79,-258.27"/>
</g>
<!-- Cube2 in Hand? -->
<g id="node9" class="node">
<title>Cube2 in Hand?</title>
<ellipse fill="lightgray" stroke="black" cx="169.38" cy="-162" rx="52.58" ry="18"/>
<text text-anchor="middle" x="169.38" y="-159.8" font-family="Times,serif" font-size="9.00">Cube2 in Hand?</text>
</g>
<!-- Fallback &#160;&#45;&gt;Cube2 in Hand? -->
<g id="edge8" class="edge">
<title>Fallback &#160;&#45;&gt;Cube2 in Hand?</title>
<path fill="none" stroke="black" d="M252.63,-218.5C237.69,-208.54 217.63,-195.16 200.94,-184.04"/>
<polygon fill="black" stroke="black" points="202.83,-181.09 192.57,-178.46 198.95,-186.92 202.83,-181.09"/>
</g>
<!-- Sequence &#160; -->
<g id="node10" class="node">
<title>Sequence &#160;</title>
<polygon fill="orange" stroke="black" points="308.38,-180 240.38,-180 240.38,-144 308.38,-144 308.38,-180"/>
<text text-anchor="middle" x="274.38" y="-159.8" font-family="Times,serif" font-size="9.00">Sequence &#160;</text>
</g>
<!-- Fallback &#160;&#45;&gt;Sequence &#160; -->
<g id="edge9" class="edge">
<title>Fallback &#160;&#45;&gt;Sequence &#160;</title>
<path fill="none" stroke="black" d="M274.38,-215.7C274.38,-207.98 274.38,-198.71 274.38,-190.11"/>
<polygon fill="black" stroke="black" points="277.88,-190.1 274.38,-180.1 270.88,-190.1 277.88,-190.1"/>
</g>
<!-- Fallback &#160;&#160; -->
<g id="node11" class="node">
<title>Fallback &#160;&#160;</title>
<polygon fill="cyan" stroke="black" points="265.12,-82.54 265.12,-97.46 241.26,-108 207.51,-108 183.64,-97.46 183.64,-82.54 207.51,-72 241.26,-72 265.12,-82.54"/>
<text text-anchor="middle" x="224.38" y="-87.8" font-family="Times,serif" font-size="9.00">Fallback &#160;&#160;</text>
</g>
<!-- Sequence &#160;&#45;&gt;Fallback &#160;&#160; -->
<g id="edge10" class="edge">
<title>Sequence &#160;&#45;&gt;Fallback &#160;&#160;</title>
<path fill="none" stroke="black" d="M262.02,-143.7C256.15,-135.47 249.02,-125.48 242.54,-116.42"/>
<polygon fill="black" stroke="black" points="245.26,-114.21 236.6,-108.1 239.57,-118.28 245.26,-114.21"/>
</g>
<!-- Pick cube2! -->
<g id="node14" class="node">
<title>Pick cube2!</title>
<ellipse fill="lightgray" stroke="black" cx="324.38" cy="-90" rx="40.98" ry="18"/>
<text text-anchor="middle" x="324.38" y="-87.8" font-family="Times,serif" font-size="9.00">Pick cube2!</text>
</g>
<!-- Sequence &#160;&#45;&gt;Pick cube2! -->
<g id="edge13" class="edge">
<title>Sequence &#160;&#45;&gt;Pick cube2!</title>
<path fill="none" stroke="black" d="M286.74,-143.7C292.7,-135.35 299.97,-125.18 306.52,-116.02"/>
<polygon fill="black" stroke="black" points="309.55,-117.79 312.51,-107.62 303.85,-113.73 309.55,-117.79"/>
</g>
<!-- Robot&#45;At cube2? -->
<g id="node12" class="node">
<title>Robot&#45;At cube2?</title>
<ellipse fill="lightgray" stroke="black" cx="162.38" cy="-18" rx="53.89" ry="18"/>
<text text-anchor="middle" x="162.38" y="-15.8" font-family="Times,serif" font-size="9.00">Robot&#45;At cube2?</text>
</g>
<!-- Fallback &#160;&#160;&#45;&gt;Robot&#45;At cube2? -->
<g id="edge11" class="edge">
<title>Fallback &#160;&#160;&#45;&gt;Robot&#45;At cube2?</title>
<path fill="none" stroke="black" d="M209.06,-71.7C201.44,-63.09 192.1,-52.55 183.79,-43.17"/>
<polygon fill="black" stroke="black" points="186.36,-40.79 177.11,-35.62 181.12,-45.43 186.36,-40.79"/>
</g>
<!-- Move&#45;To cube2! -->
<g id="node13" class="node">
<title>Move&#45;To cube2!</title>
<ellipse fill="lightgray" stroke="black" cx="286.38" cy="-18" rx="51.92" ry="18"/>
<text text-anchor="middle" x="286.38" y="-15.8" font-family="Times,serif" font-size="9.00">Move&#45;To cube2!</text>
</g>
<!-- Fallback &#160;&#160;&#45;&gt;Move&#45;To cube2! -->
<g id="edge12" class="edge">
<title>Fallback &#160;&#160;&#45;&gt;Move&#45;To cube2!</title>
<path fill="none" stroke="black" d="M239.71,-71.7C247.33,-63.09 256.66,-52.55 264.98,-43.17"/>
<polygon fill="black" stroke="black" points="267.65,-45.43 271.66,-35.62 262.41,-40.79 267.65,-45.43"/>
</g>
<!-- Robot&#45;At delivery? -->
<g id="node16" class="node">
<title>Robot&#45;At delivery?</title>
<ellipse fill="lightgray" stroke="black" cx="385.38" cy="-162" rx="58.78" ry="18"/>
<text text-anchor="middle" x="385.38" y="-159.8" font-family="Times,serif" font-size="9.00">Robot&#45;At delivery?</text>
</g>
<!-- Fallback &#160;&#160;&#160;&#45;&gt;Robot&#45;At delivery? -->
<g id="edge15" class="edge">
<title>Fallback &#160;&#160;&#160;&#45;&gt;Robot&#45;At delivery?</title>
<path fill="none" stroke="black" d="M385.38,-215.7C385.38,-207.98 385.38,-198.71 385.38,-190.11"/>
<polygon fill="black" stroke="black" points="388.88,-190.1 385.38,-180.1 381.88,-190.1 388.88,-190.1"/>
</g>
<!-- Move&#45;To delivery! -->
<g id="node17" class="node">
<title>Move&#45;To delivery!</title>
<ellipse fill="lightgray" stroke="black" cx="519.38" cy="-162" rx="57.32" ry="18"/>
<text text-anchor="middle" x="519.38" y="-159.8" font-family="Times,serif" font-size="9.00">Move&#45;To delivery!</text>
</g>
<!-- Fallback &#160;&#160;&#160;&#45;&gt;Move&#45;To delivery! -->
<g id="edge16" class="edge">
<title>Fallback &#160;&#160;&#160;&#45;&gt;Move&#45;To delivery!</title>
<path fill="none" stroke="black" d="M411.54,-219.34C431.62,-208.85 459.62,-194.22 482.06,-182.5"/>
<polygon fill="black" stroke="black" points="483.74,-185.57 490.98,-177.84 480.49,-179.37 483.74,-185.57"/>
</g>
<!-- Robot&#45;At inspection? -->
<g id="node20" class="node">
<title>Robot&#45;At inspection?</title>
<ellipse fill="lightgray" stroke="black" cx="501.38" cy="-306" rx="65.48" ry="18"/>
<text text-anchor="middle" x="501.38" y="-303.8" font-family="Times,serif" font-size="9.00">Robot&#45;At inspection?</text>
</g>
<!-- Fallback &#160;&#160;&#160;&#160;&#45;&gt;Robot&#45;At inspection? -->
<g id="edge19" class="edge">
<title>Fallback &#160;&#160;&#160;&#160;&#45;&gt;Robot&#45;At inspection?</title>
<path fill="none" stroke="black" d="M501.38,-359.7C501.38,-351.98 501.38,-342.71 501.38,-334.11"/>
<polygon fill="black" stroke="black" points="504.88,-334.1 501.38,-324.1 497.88,-334.1 504.88,-334.1"/>
</g>
<!-- Dock! -->
<g id="node21" class="node">
<title>Dock!</title>
<ellipse fill="lightgray" stroke="black" cx="611.38" cy="-306" rx="27" ry="18"/>
<text text-anchor="middle" x="611.38" y="-303.8" font-family="Times,serif" font-size="9.00">Dock!</text>
</g>
<!-- Fallback &#160;&#160;&#160;&#160;&#45;&gt;Dock! -->
<g id="edge20" class="edge">
<title>Fallback &#160;&#160;&#160;&#160;&#45;&gt;Dock!</title>
<path fill="none" stroke="black" d="M524.98,-361.98C542.18,-351.04 565.55,-336.17 583.65,-324.65"/>
<polygon fill="black" stroke="black" points="586.01,-327.3 592.57,-318.97 582.25,-321.39 586.01,-327.3"/>
</g>
</g>
</svg>
