<?xml version="1.0" encoding="UTF-8" standalone="no"?>
<!DOCTYPE svg PUBLIC "-//W3C//DTD SVG 1.1//EN"
 "http://www.w3.org/Graphics/SVG/1.1/DTD/svg11.dtd">
<!-- Generated by graphviz version 2.43.0 (0)
 -->
<!-- Title: G Pages: 1 -->
<svg width="296pt" height="602pt"
 viewBox="0.00 0.00 296.00 602.00" xmlns="http://www.w3.org/2000/svg" xmlns:xlink="http://www.w3.org/1999/xlink">
<g id="graph0" class="graph" transform="scale(1 1) rotate(0) translate(4 598)">
<title>G</title>
<polygon fill="white" stroke="transparent" points="-4,4 -4,-598 292,-598 292,4 -4,4"/>
<g id="clust1" class="cluster">
<title>cluster_/SM_ROOT</title>
<polygon fill="none" stroke="transparent" points="8,-8 8,-586 280,-586 280,-8 8,-8"/>
</g>
<g id="clust2" class="cluster">
<title>cluster_/SM_ROOT/__outcomes__</title>
<path fill="#ffffff" stroke="#ffffff" d="M65,-16C65,-16 243,-16 243,-16 249,-16 255,-22 255,-28 255,-28 255,-42 255,-42 255,-48 249,-54 243,-54 243,-54 65,-54 65,-54 59,-54 53,-48 53,-42 53,-42 53,-28 53,-28 53,-22 59,-16 65,-16"/>
</g>
<!-- /SM_ROOT/__proxy__ -->
<g id="node1" class="node">
<title>/SM_ROOT/__proxy__</title>
<g id="a_node1"><a xlink:href="/SM_ROOT" xlink:title="SM_ROOT">
<text text-anchor="middle" x="182" y="-559.6" font-family="Times,serif" font-size="18.00">SM_ROOT</text>
</a>
</g>
</g>
<!-- /SM_ROOT/Move&#45;To cube2 -->
<g id="node4" class="node">
<title>/SM_ROOT/Move&#45;To cube2</title>
<g id="a_node4"><a xlink:href="/SM_ROOT/Move-To cube2" xlink:title="Move&#45;To cube2">
<ellipse fill="#ffffff" stroke="#000000" stroke-width="2" cx="182" cy="-478" rx="80.69" ry="18"/>
<text text-anchor="middle" x="182" y="-474.3" font-family="Times,serif" font-size="14.00">Move&#45;To cube2</text>
</a>
</g>
</g>
<!-- /SM_ROOT/__proxy__&#45;&gt;/SM_ROOT/Move&#45;To cube2 -->
<g id="edge11" class="edge">
<title>/SM_ROOT/__proxy__&#45;&gt;/SM_ROOT/Move&#45;To cube2</title>
<g id="a_edge11"><a xlink:href="/SM_ROOT/__proxy__::/SM_ROOT/Move-To cube2">
<path fill="none" stroke="black" stroke-width="2" d="M182,-549.88C182,-538.22 182,-520.8 182,-506.16"/>
<polygon fill="black" stroke="black" stroke-width="2" points="185.5,-506.1 182,-496.1 178.5,-506.1 185.5,-506.1"/>
</a>
</g>
</g>
<!-- /SM_ROOT:SUCCESS -->
<g id="node2" class="node">
<title>/SM_ROOT:SUCCESS</title>
<g id="a_node2"><a xlink:href="/SM_ROOT:SUCCESS" xlink:title="SUCCESS">
<path fill="#2ecc71" stroke="#1e8449" d="M131.67,-46C131.67,-46 68.33,-46 68.33,-46 64.67,-46 61,-42.33 61,-38.67 61,-38.67 61,-31.33 61,-31.33 61,-27.67 64.67,-24 68.33,-24 68.33,-24 131.67,-24 131.67,-24 135.33,-24 139,-27.67 139,-31.33 139,-31.33 139,-38.67 139,-38.67 139,-42.33 135.33,-46 131.67,-46"/>
<text text-anchor="middle" x="100" y="-31.9" font-family="Times,serif" font-size="12.00" fill="#1e8449">SUCCESS</text>
</a>
</g>
</g>
<!-- /SM_ROOT:FAILURE -->
<g id="node3" class="node">
<title>/SM_ROOT:FAILURE</title>
<g id="a_node3"><a xlink:href="/SM_ROOT:FAILURE" xlink:title="FAILURE">
<path fill="#fe464f" stroke="#780006" d="M239.67,-46C239.67,-46 182.33,-46 182.33,-46 178.67,-46 175,-42.33 175,-38.67 175,-38.67 175,-31.33 175,-31.33 175,-27.67 178.67,-24 182.33,-24 182.33,-24 239.67,-24 239.67,-24 243.33,-24 247,-27.67 247,-31.33 247,-31.33 247,-38.67 247,-38.67 247,-42.33 243.33,-46 239.67,-46"/>
<text text-anchor="middle" x="211" y="-31.9" font-family="Times,serif" font-size="12.00" fill="#780006">FAILURE</text>
</a>
</g>
</g>
<!-- /SM_ROOT/Pick cube2 -->
<g id="node5" class="node">
<title>/SM_ROOT/Pick cube2</title>
<g id="a_node5"><a xlink:href="/SM_ROOT/Pick cube2" xlink:title="Pick cube2">
<ellipse fill="#ffffff" stroke="#000000" stroke-width="2" cx="173" cy="-388" rx="61.19" ry="18"/>
<text text-anchor="middle" x="173" y="-384.3" font-family="Times,serif" font-size="14.00">Pick cube2</text>
</a>
</g>
</g>
<!-- /SM_ROOT/Move&#45;To cube2&#45;&gt;/SM_ROOT/Pick cube2 -->
<g id="edge1" class="edge">
<title>/SM_ROOT/Move&#45;To cube2&#45;&gt;/SM_ROOT/Pick cube2</title>
<g id="a_edge1"><a xlink:href="/SM_ROOT/Move-To cube2:Cube2 reached:/SM_ROOT/Pick cube2">
<path fill="none" stroke="black" stroke-width="2" d="M180.22,-459.61C178.96,-447.24 177.23,-430.37 175.78,-416.22"/>
<polygon fill="black" stroke="black" stroke-width="2" points="179.24,-415.64 174.74,-406.05 172.28,-416.35 179.24,-415.64"/>
</a>
</g>
<g id="a_edge1&#45;label"><a xlink:href="/SM_ROOT/Move-To cube2:Cube2 reached:/SM_ROOT/Pick cube2">
<text text-anchor="middle" x="153.95" y="-434.75" font-family="Times,serif" font-size="6.00">Cube2 reached</text>
</a>
</g>
</g>
<!-- /SM_ROOT/Failure -->
<g id="node8" class="node">
<title>/SM_ROOT/Failure</title>
<g id="a_node8"><a xlink:href="/SM_ROOT/Failure" xlink:title="Failure">
<ellipse fill="#ffffff" stroke="#000000" stroke-width="2" cx="219" cy="-118" rx="42.79" ry="18"/>
<text text-anchor="middle" x="219" y="-114.3" font-family="Times,serif" font-size="14.00">Failure</text>
</a>
</g>
</g>
<!-- /SM_ROOT/Move&#45;To cube2&#45;&gt;/SM_ROOT/Failure -->
<g id="edge2" class="edge">
<title>/SM_ROOT/Move&#45;To cube2&#45;&gt;/SM_ROOT/Failure</title>
<g id="a_edge2"><a xlink:href="/SM_ROOT/Move-To cube2:FAILURE:/SM_ROOT/Failure">
<path fill="none" stroke="black" stroke-width="2" d="M206.08,-460.56C222.45,-447.83 242.74,-428.58 252,-406 288.93,-315.95 250.91,-197.5 230.35,-145.46"/>
<polygon fill="black" stroke="black" stroke-width="2" points="233.5,-143.91 226.49,-135.96 227.01,-146.54 233.5,-143.91"/>
</a>
</g>
<g id="a_edge2&#45;label"><a xlink:href="/SM_ROOT/Move-To cube2:FAILURE:/SM_ROOT/Failure">
<text text-anchor="middle" x="252.6" y="-297.04" font-family="Times,serif" font-size="6.00">FAILURE</text>
</a>
</g>
</g>
<!-- /SM_ROOT/Move&#45;To delivery -->
<g id="node6" class="node">
<title>/SM_ROOT/Move&#45;To delivery</title>
<g id="a_node6"><a xlink:href="/SM_ROOT/Move-To delivery" xlink:title="Move&#45;To delivery">
<ellipse fill="#ffffff" stroke="#000000" stroke-width="2" cx="106" cy="-298" rx="90.18" ry="18"/>
<text text-anchor="middle" x="106" y="-294.3" font-family="Times,serif" font-size="14.00">Move&#45;To delivery</text>
</a>
</g>
</g>
<!-- /SM_ROOT/Pick cube2&#45;&gt;/SM_ROOT/Move&#45;To delivery -->
<g id="edge3" class="edge">
<title>/SM_ROOT/Pick cube2&#45;&gt;/SM_ROOT/Move&#45;To delivery</title>
<g id="a_edge3"><a xlink:href="/SM_ROOT/Pick cube2:Cube2 in Hand:/SM_ROOT/Move-To delivery">
<path fill="none" stroke="black" stroke-width="2" d="M160.08,-370.03C150.16,-357.01 136.32,-338.82 125.12,-324.11"/>
<polygon fill="black" stroke="black" stroke-width="2" points="127.72,-321.75 118.88,-315.92 122.15,-325.99 127.72,-321.75"/>
</a>
</g>
<g id="a_edge3&#45;label"><a xlink:href="/SM_ROOT/Pick cube2:Cube2 in Hand:/SM_ROOT/Move-To delivery">
<text text-anchor="middle" x="115.85" y="-345" font-family="Times,serif" font-size="6.00">Cube2 in Hand</text>
</a>
</g>
</g>
<!-- /SM_ROOT/Pick cube2&#45;&gt;/SM_ROOT/Failure -->
<g id="edge4" class="edge">
<title>/SM_ROOT/Pick cube2&#45;&gt;/SM_ROOT/Failure</title>
<g id="a_edge4"><a xlink:href="/SM_ROOT/Pick cube2:FAILURE:/SM_ROOT/Failure">
<path fill="none" stroke="black" stroke-width="2" d="M185.88,-370.3C195.65,-356.56 208.33,-336.14 214,-316 230.5,-257.4 226.48,-185.09 222.49,-146.44"/>
<polygon fill="black" stroke="black" stroke-width="2" points="225.92,-145.57 221.33,-136.02 218.96,-146.35 225.92,-145.57"/>
</a>
</g>
<g id="a_edge4&#45;label"><a xlink:href="/SM_ROOT/Pick cube2:FAILURE:/SM_ROOT/Failure">
<text text-anchor="middle" x="210.4" y="-257.03" font-family="Times,serif" font-size="6.00">FAILURE</text>
</a>
</g>
</g>
<!-- /SM_ROOT/Place cube2 -->
<g id="node7" class="node">
<title>/SM_ROOT/Place cube2</title>
<g id="a_node7"><a xlink:href="/SM_ROOT/Place cube2" xlink:title="Place cube2">
<ellipse fill="#ffffff" stroke="#000000" stroke-width="2" cx="92" cy="-208" rx="66.09" ry="18"/>
<text text-anchor="middle" x="92" y="-204.3" font-family="Times,serif" font-size="14.00">Place cube2</text>
</a>
</g>
</g>
<!-- /SM_ROOT/Move&#45;To delivery&#45;&gt;/SM_ROOT/Place cube2 -->
<g id="edge5" class="edge">
<title>/SM_ROOT/Move&#45;To delivery&#45;&gt;/SM_ROOT/Place cube2</title>
<g id="a_edge5"><a xlink:href="/SM_ROOT/Move-To delivery:Delivery pose reached:/SM_ROOT/Place cube2">
<path fill="none" stroke="black" stroke-width="2" d="M103.23,-279.61C101.27,-267.24 98.58,-250.37 96.33,-236.22"/>
<polygon fill="black" stroke="black" stroke-width="2" points="99.74,-235.38 94.71,-226.05 92.83,-236.48 99.74,-235.38"/>
</a>
</g>
<g id="a_edge5&#45;label"><a xlink:href="/SM_ROOT/Move-To delivery:Delivery pose reached:/SM_ROOT/Place cube2">
<text text-anchor="middle" x="63.43" y="-254.75" font-family="Times,serif" font-size="6.00">Delivery pose reached</text>
</a>
</g>
</g>
<!-- /SM_ROOT/Move&#45;To delivery&#45;&gt;/SM_ROOT/Failure -->
<g id="edge6" class="edge">
<title>/SM_ROOT/Move&#45;To delivery&#45;&gt;/SM_ROOT/Failure</title>
<g id="a_edge6"><a xlink:href="/SM_ROOT/Move-To delivery:FAILURE:/SM_ROOT/Failure">
<path fill="none" stroke="black" stroke-width="2" d="M126.31,-280.37C141.61,-266.98 162.24,-246.99 176,-226 192.56,-200.73 204.54,-168.08 211.58,-145.52"/>
<polygon fill="black" stroke="black" stroke-width="2" points="214.94,-146.52 214.47,-135.93 208.23,-144.5 214.94,-146.52"/>
</a>
</g>
<g id="a_edge6&#45;label"><a xlink:href="/SM_ROOT/Move-To delivery:FAILURE:/SM_ROOT/Failure">
<text text-anchor="middle" x="196.71" y="-217.15" font-family="Times,serif" font-size="6.00">FAILURE</text>
</a>
</g>
</g>
<!-- /SM_ROOT/Place cube2&#45;&gt;/SM_ROOT/Failure -->
<g id="edge8" class="edge">
<title>/SM_ROOT/Place cube2&#45;&gt;/SM_ROOT/Failure</title>
<g id="a_edge8"><a xlink:href="/SM_ROOT/Place cube2:FAILURE:/SM_ROOT/Failure">
<path fill="none" stroke="black" stroke-width="2" d="M115,-191.06C135.79,-176.66 166.52,-155.37 189.19,-139.66"/>
<polygon fill="black" stroke="black" stroke-width="2" points="191.22,-142.51 197.44,-133.94 187.23,-136.76 191.22,-142.51"/>
</a>
</g>
<g id="a_edge8&#45;label"><a xlink:href="/SM_ROOT/Place cube2:FAILURE:/SM_ROOT/Failure">
<text text-anchor="middle" x="142" y="-164.85" font-family="Times,serif" font-size="6.00">FAILURE</text>
</a>
</g>
</g>
<!-- /SM_ROOT/Success -->
<g id="node9" class="node">
<title>/SM_ROOT/Success</title>
<g id="a_node9"><a xlink:href="/SM_ROOT/Success" xlink:title="Success">
<ellipse fill="#ffffff" stroke="#000000" stroke-width="2" cx="92" cy="-118" rx="48.19" ry="18"/>
<text text-anchor="middle" x="92" y="-114.3" font-family="Times,serif" font-size="14.00">Success</text>
</a>
</g>
</g>
<!-- /SM_ROOT/Place cube2&#45;&gt;/SM_ROOT/Success -->
<g id="edge7" class="edge">
<title>/SM_ROOT/Place cube2&#45;&gt;/SM_ROOT/Success</title>
<g id="a_edge7"><a xlink:href="/SM_ROOT/Place cube2:Cube2 palced:/SM_ROOT/Success">
<path fill="none" stroke="black" stroke-width="2" d="M92,-189.61C92,-177.24 92,-160.37 92,-146.22"/>
<polygon fill="black" stroke="black" stroke-width="2" points="95.5,-146.05 92,-136.05 88.5,-146.05 95.5,-146.05"/>
</a>
</g>
<g id="a_edge7&#45;label"><a xlink:href="/SM_ROOT/Place cube2:Cube2 palced:/SM_ROOT/Success">
<text text-anchor="middle" x="70.5" y="-164.75" font-family="Times,serif" font-size="6.00">Cube2 palced</text>
</a>
</g>
</g>
<!-- /SM_ROOT/Failure&#45;&gt;/SM_ROOT:FAILURE -->
<g id="edge9" class="edge">
<title>/SM_ROOT/Failure&#45;&gt;/SM_ROOT:FAILURE</title>
<g id="a_edge9"><a xlink:href="/SM_ROOT/Failure:FAILURE:/SM_ROOT/FAILURE">
<path fill="none" stroke="#000000" stroke-width="2" stroke-opacity="0.333333" d="M217.3,-99.82C216.04,-87.05 214.32,-69.59 212.99,-56.16"/>
<polygon fill="#000000" fill-opacity="0.333333" stroke="#000000" stroke-width="2" stroke-opacity="0.333333" points="216.45,-55.62 211.99,-46.01 209.49,-56.31 216.45,-55.62"/>
</a>
</g>
<g id="a_edge9&#45;label"><a xlink:href="/SM_ROOT/Failure:FAILURE:/SM_ROOT/FAILURE">
<text text-anchor="middle" x="200.68" y="-75.42" font-family="Times,serif" font-size="6.00">FAILURE</text>
</a>
</g>
</g>
<!-- /SM_ROOT/Success&#45;&gt;/SM_ROOT:SUCCESS -->
<g id="edge10" class="edge">
<title>/SM_ROOT/Success&#45;&gt;/SM_ROOT:SUCCESS</title>
<g id="a_edge10"><a xlink:href="/SM_ROOT/Success:SUCCESS:/SM_ROOT/SUCCESS">
<path fill="none" stroke="#000000" stroke-width="2" stroke-opacity="0.333333" d="M93.7,-99.82C94.96,-87.05 96.68,-69.59 98.01,-56.16"/>
<polygon fill="#000000" fill-opacity="0.333333" stroke="#000000" stroke-width="2" stroke-opacity="0.333333" points="101.51,-56.31 99.01,-46.01 94.55,-55.62 101.51,-56.31"/>
</a>
</g>
<g id="a_edge10&#45;label"><a xlink:href="/SM_ROOT/Success:SUCCESS:/SM_ROOT/SUCCESS">
<text text-anchor="middle" x="80.82" y="-75.42" font-family="Times,serif" font-size="6.00">SUCCESS</text>
</a>
</g>
</g>
</g>
</svg>
